<svg viewBox="1554.7670900000003 222.1197891566265 1451.97045 544.3738554216867" style="max-height: 500px" xmlns="http://www.w3.org/2000/svg" width="1451.97045" height="544.3738554216867">
  <g transform="translate(0,0.000) scale(0.474273) translate(-796.180,-1472.340)">
    <path transform="translate(1801,1473)" fill="#111111" d="M0 0 C29.64652422 9.27178802 59.13934119 18.96952788 88.59216309 28.83770752 C126.28386035 41.46959817 126.28386035 41.46959817 164.0395546 53.90847969 C165.85834203 54.50231974 167.67688228 55.09691752 169.49514389 55.69236565 C172.00382869 56.51330647 174.51367228 57.33059871 177.02392578 58.14672852 C178.08267599 58.493768 178.08267599 58.493768 179.16281509 58.84781837 C181.43638867 59.58385761 183.71758386 60.291812 186 61 C187.50614142 61.48077978 187.50614142 61.48077978 189.04270995 61.97127229 C197.30253441 64.49199103 205.08749634 65.78783115 213.68878174 66.34072876 C214.99225768 66.43665703 216.29573362 66.5325853 217.63870883 66.63142049 C221.21262117 66.89406594 224.78757413 67.13838317 228.36299896 67.37943316 C232.2356098 67.64387021 236.10695532 67.92577748 239.97848511 68.20552063 C246.673964 68.68700829 253.37012439 69.15779714 260.06687164 69.62129593 C269.75998217 70.2923109 279.45176143 70.98118164 289.14329776 71.67452042 C304.8851169 72.80033818 320.62778189 73.91381911 336.37109375 75.01855469 C351.63112065 76.08942145 366.89095565 77.16291532 382.15039062 78.2421875 C383.09092306 78.3087067 384.03145549 78.3752259 385.00048891 78.44376083 C395.27455344 79.17054562 405.54850263 79.89893782 415.82227707 80.62981224 C416.72582164 80.69408983 417.62936621 80.75836742 418.56029092 80.82459282 C422.17277238 81.08161934 425.78525092 81.33868661 429.39771304 81.59598498 C439.95674045 82.34804772 450.51609431 83.09506223 461.07613441 83.83277617 C467.69776018 84.29554135 474.31907484 84.76258338 480.9401646 85.23295523 C484.75687929 85.50390305 488.57371506 85.77269252 492.39097977 86.03578758 C496.53421189 86.32136758 500.67667826 86.61687303 504.81915283 86.91323853 C506.0177963 86.99417617 507.21643977 87.07511382 508.45140576 87.15850413 C527.08792235 88.51808141 527.08792235 88.51808141 534.6875 94.3125 C536.07369678 95.31372817 537.46190918 96.31216863 538.8515625 97.30859375 C540.04313965 98.17073486 540.04313965 98.17073486 541.25878906 99.05029297 C546.30278051 102.63787007 551.44854561 106.07754566 556.58032227 109.53775024 C559.24668411 111.33657568 561.90977355 113.14021552 564.57293701 114.94377136 C570.23780732 118.77998608 575.90528694 122.61234395 581.57295227 126.44442749 C584.42529256 128.37323877 587.27712245 130.30280387 590.12887573 132.23248291 C592.15188503 133.60090893 594.17566441 134.96819073 596.19946289 136.33544922 C597.4390055 137.17409355 598.67850952 138.01279493 599.91796875 138.8515625 C601.53868286 139.94718506 601.53868286 139.94718506 603.19213867 141.06494141 C606 143 606 143 607.68040466 144.54594421 C610.92709497 146.58115646 614.18977145 146.81594475 617.92138672 147.19995117 C618.71911625 147.29217516 619.51684578 147.38439915 620.33874893 147.4794178 C622.99286799 147.78329878 625.64860114 148.06933617 628.3046875 148.35546875 C630.18721028 148.56749101 632.06960381 148.78066375 633.95187378 148.99491882 C637.9319743 149.44579261 641.91280878 149.8891707 645.89440918 150.32659912 C651.86258748 150.98276594 657.82844809 151.65832335 663.79394531 152.33837891 C674.57479312 153.56523613 685.35758125 154.77429277 696.14093018 155.97894287 C701.23209566 156.5480296 706.323069 157.11883032 711.4140625 157.68945312 C721.27586262 158.79457195 731.13786038 159.89791525 741 161 C736.44202335 170.49307903 727.89606279 178.49408931 721.04296875 186.45703125 C718.15769425 189.81142628 715.29320938 193.18291989 712.4375 196.5625 C711.98777832 197.09472168 711.53805664 197.62694336 711.07470703 198.17529297 C710.16931558 199.2471334 709.26404183 200.31907326 708.35888672 201.39111328 C706.07453814 204.09572289 703.78710492 206.79772127 701.5 209.5 C700.58331874 210.58332099 699.66665207 211.66665432 698.75 212.75 C649.25 271.25 649.25 271.25 647.87475586 272.87524414 C646.95884461 273.95771428 646.04299167 275.04023375 645.12719727 276.12280273 C642.82445016 278.84475216 640.52067062 281.56581507 638.21484375 284.28515625 C637.7561792 284.82672363 637.29751465 285.36829102 636.82495117 285.92626953 C635.90099491 287.01589735 634.97537789 288.10411913 634.0480957 289.19091797 C631.83634872 291.79071139 629.68138605 294.40751752 627.578125 297.09765625 C613.66061411 314.72195517 594.36425841 326.05954854 572 329 C567.97797257 329.30247238 563.95692811 329.44096457 559.92581177 329.56286621 C558.21642573 329.62124672 558.21642573 329.62124672 556.47250664 329.68080664 C545.02519335 330.05986867 533.57557535 330.32353622 522.12451172 330.55664062 C519.86986396 330.604237 517.61522032 330.65202876 515.36058044 330.69999695 C509.31053766 330.82812638 503.26043976 330.95344064 497.21032476 331.07810783 C490.78212323 331.21097263 484.35397148 331.34620872 477.92581177 331.4810791 C467.09803481 331.70789429 456.27022153 331.93289329 445.44238281 332.15673828 C434.46545422 332.38366599 423.48856623 332.61244362 412.51171875 332.84326172 C399.11826079 333.12489306 385.72476677 333.40473184 372.33124161 333.68315125 C367.29876586 333.78779033 362.26630347 333.89303746 357.23385239 333.99885559 C350.0867677 334.14895524 342.93964272 334.29700068 335.79248047 334.44335938 C334.01200453 334.47990788 334.01200453 334.47990788 332.19555938 334.51719475 C319.23816526 334.78127039 306.28103527 335.02022669 293.32206726 335.1920166 C241.38917787 335.88843433 189.47333414 337.26541221 137.5532972 338.58784068 C127.73120166 338.83796751 117.90906948 339.08661609 108.08691216 339.33430481 C107.02766243 339.36101778 107.02766243 339.36101778 105.94701371 339.3882704 C103.07844431 339.46060811 100.20987467 339.53293677 97.34130474 339.60525368 C71.40268276 340.2591697 45.46413494 340.91597878 19.52563477 341.57470703 C-4.83857565 342.19345275 -29.20283029 342.81041664 -53.56713867 343.42529297 C-54.32031276 343.44430111 -55.07348684 343.46330924 -55.84948439 343.48289338 C-59.64416999 343.57866101 -63.43885566 343.67442593 -67.23354134 343.77019021 C-67.9827064 343.78909652 -68.73187145 343.80800284 -69.50373848 343.82748207 C-71.01478255 343.86561528 -72.52582663 343.90374791 -74.03687073 343.94187993 C-98.18660069 344.5513214 -122.336296 345.16213338 -146.48598326 345.77326408 C-153.51272293 345.95107945 -160.53946399 346.12883964 -167.5662086 346.30645943 C-182.29979678 346.67890492 -197.03337246 347.05183111 -211.76691144 347.42621911 C-217.8452093 347.58066658 -223.9235128 347.73488052 -230.00183487 347.88837242 C-243.44736471 348.22806473 -256.89272284 348.57345813 -270.33782157 348.92982459 C-272.9291508 348.9981324 -275.52050849 349.06524216 -278.11187673 349.13205147 C-281.97319418 349.23199248 -285.83435972 349.3365083 -289.69544745 349.44495422 C-291.67141016 349.49957408 -293.64748493 349.55009454 -295.62356275 349.60037756 C-345.3739493 351.04489284 -395.99219674 366.22893852 -435 398 C-435.92683594 398.73734375 -436.85367188 399.4746875 -437.80859375 400.234375 C-453.30852791 412.70311538 -467.09650349 426.0845668 -479 442 C-479.72058594 442.94875 -480.44117188 443.8975 -481.18359375 444.875 C-510.29534019 483.91765409 -527.11758786 533.02488091 -527.16113281 581.74755859 C-527.16577373 583.10619742 -527.17080005 584.46483497 -527.17617798 585.82347107 C-527.18921595 589.49720325 -527.19573468 593.17091719 -527.20018864 596.84466887 C-527.2031445 599.16373774 -527.20725453 601.48280196 -527.21169281 603.80186844 C-527.22536966 611.12432273 -527.23502508 618.44676599 -527.2388947 625.76923215 C-527.24288546 633.27264425 -527.25497605 640.77592792 -527.28125 648.27929688 C-527.57152668 733.04744934 -520.51871716 815.66487076 -491.5625 925.5625 C-491.32764893 926.31853516 -491.09279785 927.07457031 -490.85083008 927.85351562 C-489.88773401 930.81162189 -489.23075405 932.76924595 -487 935 C-484.54290625 935.58350505 -484.54290625 935.58350505 -482 935 C-479.49531282 931.55120259 -478.44410098 928.41849833 -477.640625 924.265625 C-477.30357544 922.58799072 -477.30357544 922.58799072 -476.9597168 920.87646484 C-476.72551025 919.67973145 -476.49130371 918.48299805 -476.25 917.25 C-469.56075121 884.76296116 -459.09030975 854.01474796 -445 824 C-444.58137695 823.10087891 -444.16275391 822.20175781 -443.73144531 821.27539062 C-430.89181843 793.91363047 -414.16531979 768.34092491 -395 745 C-394.33387695 744.18740723 -394.33387695 744.18740723 -393.65429688 743.35839844 C-383.92885419 731.55492951 -373.53881461 720.46023713 -362.75 709.625 C-362.00548584 708.87581299 -361.26097168 708.12662598 -360.49389648 707.35473633 C-355.82470148 702.69903161 -351.02392941 698.26958941 -346 694 C-345.36320312 693.45649902 -344.72640625 692.91299805 -344.0703125 692.35302734 C-327.66650523 678.4503046 -310.40605775 666.11184598 -292 655 C-291.19256348 654.51176758 -290.38512695 654.02353516 -289.55322266 653.52050781 C-266.80806609 639.8850988 -242.94131127 628.95644002 -218 620 C-217.11747559 619.67837891 -216.23495117 619.35675781 -215.32568359 619.02539062 C-167.89631294 601.8714482 -118.52025727 596.38733272 -68.38734436 595.39294434 C-65.81161967 595.33944956 -63.23590093 595.2856679 -60.66018766 595.23162603 C-55.08466655 595.11509538 -49.50910101 595.00093256 -43.93349838 594.88837242 C-35.64198395 594.7209683 -27.3505503 594.54979243 -19.05912893 594.37784781 C-5.1029722 594.08852253 8.85324282 593.80211 22.80949211 593.51728821 C41.87586655 593.12813925 60.94215163 592.73473947 80.00841577 592.34022707 C88.9032974 592.15618321 97.79818333 591.97234725 106.69307041 591.78856659 C107.58336617 591.77017163 108.47366193 591.75177667 109.39093635 591.73282428 C130.55901514 591.29550607 151.72713588 590.86023162 172.89526367 590.42529297 C174.28369234 590.396764 174.28369234 590.396764 175.70017007 590.3676587 C187.89866588 590.11701019 200.09716319 589.86643454 212.29566097 589.61588192 C229.18856412 589.26890772 246.08146604 588.92187369 262.97436523 588.57470703 C263.89932504 588.55569889 264.82428484 588.53669076 265.77727373 588.51710662 C286.90824796 588.08284941 308.03921021 587.64801977 329.17013645 587.21143341 C330.05902981 587.19306822 330.94792318 587.17470303 331.8637527 587.15578132 C340.73964449 586.97238617 349.61553425 586.78889327 358.49142098 586.60525368 C377.5328156 586.21131496 396.57424356 585.81910352 415.61574634 585.43042536 C429.49675933 585.14705824 443.37772648 584.86153288 457.25864928 584.57378089 C465.49551194 584.40310622 473.73240634 584.23419319 481.96935721 584.06782937 C488.13225899 583.94316351 494.29508821 583.81519734 500.45789642 583.68599302 C502.94151876 583.6344342 505.42516326 583.5839291 507.90883123 583.53461713 C521.29246358 583.26828219 534.64087901 582.86961947 548 582 C547.33914398 581.22113937 546.67828796 580.44227875 545.99740601 579.63981628 C541.05015635 573.80403797 536.30708087 567.84840375 531.6875 561.75 C527.39191629 556.07972824 523.01335103 550.49854019 518.5 545 C514.05374864 539.58136088 509.73323192 534.08661901 505.5 528.5 C500.68090875 522.14045704 495.72404238 515.91538482 490.66845703 509.74267578 C486.49571274 504.63843626 482.45679264 499.44742946 478.45703125 494.20703125 C474.49080767 489.01404178 470.43119905 483.89379039 466.38671875 478.76171875 C465.01582318 477.02010212 463.64800009 475.27612115 462.28125 473.53125 C458.08688509 468.17870015 453.87850553 462.83951492 449.6159668 457.54101562 C442.59190118 448.80895305 435.7713666 439.92903916 429 431 C432.77543356 429.74152215 434.1158571 430.45284326 437.86181641 431.69628906 C439.69092812 432.29620918 439.69092812 432.29620918 441.55699158 432.9082489 C442.9052421 433.36052815 444.25343048 433.81299267 445.6015625 434.265625 C447.01025058 434.73142142 448.41919722 435.19643652 449.8283844 435.66072083 C453.63701358 436.91804783 457.44187242 438.18644738 461.24615097 439.45686722 C465.22746724 440.78427909 469.21219501 442.10137055 473.1965332 443.41967773 C482.0515516 446.35183402 490.90157481 449.2988691 499.75032806 452.2498703 C503.23450671 453.41163342 506.7190784 454.57221607 510.20361328 455.73291016 C519.86497171 458.95164299 529.52562124 462.17248566 539.18383789 465.40063477 C555.26653793 470.77357731 571.37316057 476.06872321 587.5065918 481.28735352 C588.24564947 481.52746816 588.98470715 481.7675828 589.74616051 482.01497364 C591.33268444 482.5269421 592.92118891 483.03284736 594.51231766 483.53032017 C598.60053715 484.82345609 602.57035604 486.20705438 606.5035553 487.91744995 C626.93941006 496.35559309 649.03877079 496.46201061 670.81639719 497.83453679 C676.77315308 498.21714618 682.7272539 498.63778203 688.68185425 499.05235291 C717.03377416 501.0072481 745.40173612 502.71322332 773.77068162 504.39968026 C784.52850899 505.03948906 795.28546987 505.69084342 806.04119873 506.36508179 C807.22541892 506.43930347 808.40963912 506.51352515 809.62974477 506.58999598 C815.60041806 506.96492534 821.57091289 507.34253279 827.54124832 507.72280312 C839.67373505 508.49236431 851.80669128 509.21984928 863.94628906 509.8684082 C874.8822286 510.45291213 885.81085714 511.11224287 896.7371043 511.85680002 C902.41606107 512.24123059 908.09167093 512.59234656 913.7779274 512.84959602 C943.19042247 514.20821775 962.84515933 519.45069988 985.76418686 538.37686157 C989.9998105 541.86283605 994.52759004 544.87161758 999.125 547.85546875 C1000.48364757 548.77131055 1001.8407304 549.68948391 1003.1953125 550.61132812 C1004.13938965 551.25050171 1004.13938965 551.25050171 1005.10253906 551.90258789 C1006.39629619 552.77868719 1007.68991004 553.65499812 1008.98339844 554.53149414 C1009.64629883 554.98065186 1010.30919922 555.42980957 1010.9921875 555.89257812 C1011.57081543 556.28473511 1012.14944336 556.67689209 1012.74560547 557.08093262 C1014.0791068 557.98271397 1015.41643424 558.87895007 1016.76200771 559.76261711 C1020.20548872 562.04244896 1023.50689271 564.37292008 1026.69166565 567.00418091 C1039.44800223 577.12039858 1052.29491961 578.59956923 1068.16936183 580.01080298 C1071.6470862 580.3311471 1075.1184729 580.71000955 1078.59095764 581.08222961 C1085.13869262 581.77554601 1091.69026662 582.4189628 1098.24492413 583.04304296 C1106.44312549 583.82606375 1114.63448381 584.67346598 1122.82617188 585.52148438 C1131.18611472 586.38560791 1139.54630961 587.24411749 1147.91111755 588.0599823 C1149.17493256 588.18404449 1150.43874756 588.30810669 1151.74085999 588.43592834 C1154.10380787 588.66705235 1156.4670318 588.89537756 1158.83056641 589.12042236 C1159.86886093 589.22225327 1160.90715546 589.32408417 1161.97691345 589.42900085 C1162.87993667 589.51573405 1163.78295988 589.60246725 1164.71334743 589.69182873 C1167 590 1167 590 1170 591 C1165.7594377 600.48661876 1156.80206928 608.60330491 1150.04296875 616.45703125 C1147.15769425 619.81142628 1144.29320938 623.18291989 1141.4375 626.5625 C1140.98777832 627.09472168 1140.53805664 627.62694336 1140.07470703 628.17529297 C1139.16931558 629.2471334 1138.26404183 630.31907326 1137.35888672 631.39111328 C1134.61595208 634.63867693 1131.86884646 637.88271349 1129.12255859 641.12744141 C1126.84208075 643.82211033 1124.56254784 646.51756577 1122.28515625 649.21484375 C1117.50591674 654.87270826 1112.7055149 660.51082743 1107.875 666.125 C1104.38184894 670.18628745 1100.93551604 674.27518587 1097.5625 678.4375 C1093.41939009 683.54307465 1089.1176955 688.49800053 1084.79711914 693.45288086 C1081.63534162 697.08737851 1078.53149794 700.75520843 1075.5 704.5 C1070.29746283 710.92158186 1064.86259775 717.13705485 1059.42724609 723.36132812 C1058.24375946 724.72013112 1057.06811427 726.08575925 1055.89453125 727.453125 C1054.28538655 729.32370968 1052.65241895 731.16761463 1051 733 C1050.15695312 733.9590625 1050.15695312 733.9590625 1049.296875 734.9375 C1034.67397591 750.66633263 1013.54006922 758.1183488 992.44863959 759.12132695 C989.60343447 759.19998843 986.75891322 759.25257069 983.91294289 759.29546642 C982.27757024 759.32521477 982.27757024 759.32521477 980.60915975 759.3555641 C976.95073028 759.4211175 973.29222773 759.48068414 969.63369751 759.54032898 C966.98014392 759.5867167 964.32659854 759.63344978 961.67305911 759.680628 C955.89208194 759.78277532 950.11105965 759.88193567 944.32999849 759.97920775 C935.70896089 760.12435801 927.0880235 760.27491474 918.46710344 760.42686962 C914.34096634 760.49959617 910.214826 760.57213844 906.08868504 760.64464521 C905.25514755 760.65929323 904.42161006 760.67394125 903.56281387 760.68903314 C894.82543881 760.84243768 886.08803004 760.99388948 877.35062247 761.1454289 C839.66364493 761.79926058 801.97703884 762.47395952 764.29054024 763.15478774 C761.30588396 763.20870381 758.32122704 763.26258388 755.33657011 763.31646402 C662.69887555 764.98947655 570.06532446 766.85240297 477.43241708 768.77050904 C474.46057455 768.83203876 471.48873149 768.89354291 468.51688826 768.95503873 C420.85976535 769.94122647 373.2027864 770.93424874 325.54588965 771.93130098 C294.90842017 772.57226306 264.27088545 773.21002754 233.63330078 773.84545898 C232.60448055 773.8667976 231.57566032 773.88813622 230.51566373 773.91012146 C227.4020677 773.97470001 224.28847166 774.0392776 221.17487562 774.10385495 C217.03463067 774.18972562 212.89438576 774.27559755 208.75414085 774.36147022 C207.7315378 774.3826793 206.70893474 774.40388838 205.65534371 774.42574016 C172.79277005 775.10734408 139.93024766 775.79141164 107.06773346 776.47587535 C97.5925981 776.67321138 88.11745977 776.87040255 78.64231443 777.06725907 C58.99476271 777.47546851 39.34722608 777.88436831 19.69974832 778.29612467 C11.63281399 778.46516284 3.56587087 778.6337447 -4.50110245 778.80091286 C-41.10751193 779.53465297 -41.10751193 779.53465297 -77.70945816 780.45525339 C-79.61895507 780.5093529 -81.5285381 780.56038825 -83.43812525 780.61120301 C-103.83022053 781.2376523 -123.36170334 784.5449176 -143 790 C-143.88042969 790.24169922 -144.76085938 790.48339844 -145.66796875 790.73242188 C-168.90918472 797.29904415 -191.64213547 808.60274437 -211 823 C-211.60763184 823.44375977 -212.21526367 823.88751953 -212.84130859 824.34472656 C-260.94878663 859.69593833 -289.21950041 913.33395156 -298.40673828 971.57861328 C-300.99095709 989.39918265 -300.74447005 1007.44961865 -298.75 1025.3125 C-298.58624878 1026.79375366 -298.58624878 1026.79375366 -298.41918945 1028.30493164 C-296.27737738 1045.53914541 -291.75402774 1061.82475757 -286.25 1078.25 C-285.56673836 1080.30900363 -284.88397533 1082.36817277 -284.20166016 1084.42749023 C-282.68017738 1089.01050262 -281.15032852 1093.59063606 -279.61621094 1098.16943359 C-277.73113201 1103.80082812 -275.86148288 1109.43710349 -274.00097656 1115.07666016 C-271.6073937 1122.33198392 -269.20222217 1129.58334911 -266.78424072 1136.83057976 C-265.44875536 1140.8338819 -264.11775973 1144.83853775 -262.79797363 1148.8470459 C-261.54272304 1152.65776966 -260.27267265 1156.46325675 -258.99181747 1160.26544762 C-258.5199307 1161.67425587 -258.05312357 1163.08477773 -257.59189224 1164.49711037 C-253.11368499 1178.26551464 -253.11368499 1178.26551464 -242.8125 1187.9375 C-242.15894531 1188.31777344 -241.50539063 1188.69804687 -240.83203125 1189.08984375 C-234.55315407 1192.20920064 -227.15787813 1191.8353441 -220.4140625 1190.48046875 C-211.65295261 1187.06043416 -206.29634688 1178.34471862 -200.71533203 1171.18066406 C-198.23995312 1168.03376905 -195.67016154 1164.97514125 -193.0625 1161.9375 C-192.58675537 1161.38255859 -192.11101074 1160.82761719 -191.62084961 1160.25585938 C-182.15507584 1149.31944558 -172.28400893 1138.07653054 -161.25 1128.6875 C-158.05814878 1125.94201878 -154.96081173 1123.11410385 -151.875 1120.25 C-145.52036359 1114.46989236 -138.83867778 1109.19328163 -132 1104 C-130.92419678 1103.17943115 -130.92419678 1103.17943115 -129.82666016 1102.34228516 C-61.18329028 1050.19335301 22.35512035 1020.51200606 108.45102692 1017.49343872 C109.65901983 1017.45098026 110.86701275 1017.40852181 112.11161152 1017.36477673 C127.08003341 1016.86500566 142.05263826 1016.63044727 157.02709561 1016.39478627 C161.38176528 1016.32562891 165.73638157 1016.25323964 170.0910058 1016.18128777 C177.69339922 1016.05609748 185.29582243 1015.93287392 192.89826965 1015.81099701 C204.20274253 1015.62975648 215.50716209 1015.44534039 226.81157281 1015.26026863 C245.83579071 1014.94888026 264.86004641 1014.63986449 283.88432312 1014.33209229 C309.85007889 1013.91197323 335.81576907 1013.48790046 361.78144246 1013.06272388 C373.8933682 1012.86439707 386.00529671 1012.66624024 398.11722565 1012.46810913 C399.32932636 1012.44828063 400.54142707 1012.42845214 401.79025811 1012.40802278 C430.59257524 1011.93688315 459.39491709 1011.46726243 488.19726562 1010.99804688 C489.45644838 1010.97753272 490.71563113 1010.95701857 492.01297093 1010.93588278 C521.42758194 1010.45668036 550.84220218 1009.97804842 580.25683594 1009.50024414 C582.81695657 1009.45865688 585.3770772 1009.41706957 587.93719783 1009.3754822 C590.49501699 1009.33393264 593.05283615 1009.29238307 595.61065531 1009.25083351 C599.44206072 1009.18859532 603.27346613 1009.12635673 607.10487152 1009.06411722 C609.65535457 1009.0226858 612.20583763 1008.98125515 614.75632071 1008.93982527 C643.55950695 1008.47193435 672.3626811 1008.00332248 701.16580963 1007.53189087 C702.37531577 1007.51209443 703.5848219 1007.492298 704.83097974 1007.47190167 C716.90303266 1007.2742912 728.97508289 1007.07651745 741.04712942 1006.87851758 C746.98489492 1006.78113412 752.92266113 1006.68379491 758.86042786 1006.58648682 C760.02896776 1006.56733663 761.19750767 1006.54818645 762.40145787 1006.52845596 C781.23006479 1006.21999977 800.05872676 1005.91503616 818.88741306 1005.61146802 C837.77977904 1005.3068221 856.67208959 1004.99892073 875.56434697 1004.6876111 C886.79694778 1004.50262772 898.02958457 1004.32029442 909.26228831 1004.14166745 C916.75382159 1004.0222819 924.24529505 1003.89954783 931.73672816 1003.77403394 C936.01171231 1003.70250872 940.28670716 1003.63250139 944.56178159 1003.56657195 C948.44525718 1003.50665443 952.32863791 1003.44249478 956.21198639 1003.37485024 C957.61318862 1003.35120478 959.01441874 1003.32914901 960.41567299 1003.30881885 C962.30985764 1003.28111269 964.20394755 1003.24713765 966.09802389 1003.21281624 C967.14930781 1003.19572613 968.20059173 1003.17863602 969.28373274 1003.16102803 C971.67340105 1003.01936171 973.71432128 1002.68200567 976 1002 C975.21238281 1001.04222656 974.42476562 1000.08445312 973.61328125 999.09765625 C967.78847491 991.98647829 962.05128612 984.82725602 956.5 977.5 C951.68034626 971.13960146 946.72323083 964.91338803 941.66625977 958.74047852 C938.35412406 954.68974809 935.10959928 950.598721 931.9375 946.4375 C928.41715438 941.82130486 924.82966187 937.27053089 921.1875 932.75 C916.89327952 927.41710026 912.7007544 922.01718919 908.5625 916.5625 C903.72079872 910.18428039 898.74227722 903.93776155 893.66870117 897.74291992 C889.49696189 892.64005097 885.45870615 887.45073136 881.4609375 882.2109375 C878.84113772 878.78049863 876.17277969 875.38922859 873.5 872 C868.27845079 865.3751885 863.12846023 858.69703483 858 852 C860.97361156 850.51319422 862.99955886 851.78580839 866.01248169 852.76451111 C867.2902095 853.1923867 867.2902095 853.1923867 868.59375 853.62890625 C869.49833954 853.92539566 870.40292908 854.22188507 871.33493042 854.52735901 C874.39240819 855.53177829 877.44614465 856.54712486 880.5 857.5625 C882.67511297 858.27968025 884.85041056 858.9963008 887.02587891 859.71240234 C894.35484205 862.12881659 901.67804695 864.56244835 909 867 C909.98672951 867.32845791 909.98672951 867.32845791 910.99339294 867.66355133 C923.59534495 871.85884537 936.19527061 876.06022792 948.79278755 880.26882076 C966.99841619 886.35057408 985.21572296 892.39258425 1003.48828125 898.27099609 C1011.6525066 900.90181744 1019.78238003 903.60121106 1027.875 906.4453125 C1030.28112819 907.28145233 1032.68777635 908.11607968 1035.09454346 908.95037842 C1037.25246123 909.70703288 1039.40009274 910.48838889 1041.54833984 911.27197266 C1048.71694737 913.80366927 1055.55870376 915.38091389 1063.14067078 916.00708008 C1064.03894929 916.08678071 1064.9372278 916.16648134 1065.86272687 916.24859715 C1078.23805701 917.32066066 1090.63087502 918.18502697 1103.02117455 919.06275892 C1106.72051216 919.32539771 1110.41963867 919.59097981 1114.11878967 919.85623169 C1120.5042163 920.31377644 1126.88975662 920.76970427 1133.27536964 921.22463989 C1143.37359476 921.94421618 1153.47145238 922.66887415 1163.56925964 923.39428711 C1167.03542999 923.64322979 1170.50160275 923.89213894 1173.9677763 924.14103699 C1174.83346428 924.20320123 1175.69915227 924.26536547 1176.59107322 924.32941347 C1186.40318347 925.03394089 1196.21536933 925.73741239 1206.02758789 926.44042969 C1206.92276077 926.50456759 1207.81793364 926.56870549 1208.74023297 926.63478696 C1223.28945389 927.67709398 1237.83892898 928.71581942 1252.38846735 929.7536844 C1267.36446753 930.82210372 1282.34007208 931.89595314 1297.31535071 932.97443867 C1306.5345928 933.6381831 1315.75413211 934.29746652 1324.97410562 934.95097375 C1331.28221135 935.39846206 1337.58993502 935.8510892 1343.89738265 936.30775905 C1347.53362837 936.57086552 1351.17000111 936.83166191 1354.80685425 937.08624649 C1358.75122339 937.36241179 1362.69474968 937.64955993 1366.63825989 937.93774414 C1367.78348092 938.01615508 1368.92870196 938.09456602 1370.10862666 938.17535305 C1378.08585988 938.77168231 1385.41646028 939.38116804 1392.07421875 944.203125 C1392.97720703 944.84596436 1393.88019531 945.48880371 1394.81054688 946.15112305 C1395.75994141 946.84375244 1396.70933594 947.53638184 1397.6875 948.25 C1399.752659 949.72180372 1401.81909014 951.19182392 1403.88671875 952.66015625 C1404.91845215 953.39637207 1405.95018555 954.13258789 1407.01318359 954.89111328 C1411.28671097 957.90850166 1415.63417548 960.80597783 1420 963.6875 C1428.46056195 969.29219707 1436.8803041 974.95526757 1445.28320312 980.64590454 C1446.66349071 981.5806555 1448.04401953 982.51505036 1449.42480469 983.44906616 C1451.37502274 984.76843783 1453.3243688 986.08908744 1455.2734375 987.41015625 C1455.84871185 987.79924164 1456.42398621 988.18832703 1457.01669312 988.58920288 C1457.84640121 989.15231674 1457.84640121 989.15231674 1458.69287109 989.72680664 C1459.46440332 990.24559655 1459.46440332 990.24559655 1460.25152206 990.77486706 C1461.38351614 991.56803876 1462.49139771 992.39728758 1463.56626701 993.26630306 C1468.01672799 996.78584236 1471.5989594 997.8879857 1477.19042969 998.40625 C1477.9806955 998.49648437 1478.7709613 998.58671875 1479.58517456 998.6796875 C1482.19566299 998.97283399 1484.80825384 999.23637774 1487.421875 999.5 C1489.28204417 999.70321794 1491.14200658 999.90833627 1493.00177002 1000.11523438 C1497.92190623 1000.65765079 1502.84433482 1001.17533716 1507.7677002 1001.6875 C1512.6070443 1002.19459021 1517.44408161 1002.72262439 1522.28125 1003.25 C1528.03534325 1003.87612964 1533.78961084 1004.5003069 1539.54504395 1005.11401367 C1559.71325442 1007.26683107 1579.8574803 1009.62025429 1600 1012 C1598.67281258 1014.73235943 1597.3630074 1016.93642298 1595.34765625 1019.21484375 C1594.82413574 1019.81184082 1594.30061523 1020.40883789 1593.76123047 1021.02392578 C1593.20064941 1021.65540527 1592.64006836 1022.28688477 1592.0625 1022.9375 C1590.87826902 1024.28720157 1589.69468576 1025.63747171 1588.51171875 1026.98828125 C1587.62299072 1028.00075928 1587.62299072 1028.00075928 1586.71630859 1029.03369141 C1584.23884067 1031.8720309 1581.80277747 1034.74414359 1579.375 1037.625 C1578.70706421 1038.41668579 1578.70706421 1038.41668579 1578.02563477 1039.22436523 C1577.13107199 1040.28508659 1576.23678313 1041.34603901 1575.34277344 1042.40722656 C1573.06578561 1045.10814812 1570.78254206 1047.80377244 1568.5 1050.5 C1567.58330416 1051.58330865 1566.66663747 1052.66664196 1565.75 1053.75 C1545.58333333 1077.58333333 1525.41666667 1101.41666667 1505.25 1125.25 C1504.79608887 1125.7864917 1504.34217773 1126.3229834 1503.87451172 1126.87573242 C1502.95967701 1127.95679731 1502.04463859 1129.03768985 1501.12939453 1130.1184082 C1498.80798073 1132.86005658 1496.49040884 1135.60480012 1494.1796875 1138.35546875 C1491.89019525 1141.07901057 1489.5905123 1143.79354531 1487.28027344 1146.49951172 C1486.081736 1147.90420491 1484.88833298 1149.31327443 1483.6953125 1150.72265625 C1469.15768876 1167.45903091 1450.99847563 1177.20124615 1429 1180 C1426.77028449 1180.12397317 1424.53820778 1180.20985654 1422.30567265 1180.26265335 C1420.9926859 1180.29570084 1419.67969915 1180.32874833 1418.32692492 1180.36279726 C1416.88470493 1180.39488192 1415.44248302 1180.42688029 1414.0002594 1180.45880127 C1412.46450617 1180.49583086 1410.92876147 1180.53321588 1409.3930248 1180.57092619 C1405.18944302 1180.67302104 1400.98575368 1180.76979727 1396.7820224 1180.86551279 C1392.22564667 1180.97001028 1387.6693745 1181.07886875 1383.11308384 1181.18700027 C1374.34133586 1181.39436376 1365.56948048 1181.59680522 1356.79758062 1181.79762889 C1350.2154603 1181.9485223 1343.63341042 1182.10218113 1337.05140305 1182.25791931 C1308.44003248 1182.93425964 1279.82782123 1183.56736539 1251.21484375 1184.171875 C1250.00719623 1184.19741058 1248.79954871 1184.22294616 1247.55530581 1184.24925554 C1151.42852067 1186.27858474 1055.29481928 1187.8433005 879.94140625 1190.515625 C878.68044453 1190.53459014 877.4194828 1190.55355527 876.12031012 1190.57309511 C810.97150724 1191.55278573 745.82250172 1192.51872585 680.673426 1193.48008051 C642.29859098 1194.04636946 603.92380077 1194.61560591 565.5490487 1195.18748848 C563.5175797 1195.2177625 561.48611067 1195.24803492 559.45464164 1195.27830704 C542.63101804 1195.52900923 525.80739633 1195.77983855 508.9837754 1196.03072016 C486.04265791 1196.37282857 463.10153882 1196.71482912 440.1604179 1197.05670713 C437.59180044 1197.09498615 435.02318301 1197.13326672 432.4545656 1197.17154885 C397.65027661 1197.69026077 362.84596382 1198.20733666 328.04161956 1198.72232706 C319.81242713 1198.84409452 311.583236 1198.9659492 303.35404575 1199.08786345 C302.21421942 1199.10474903 301.07439309 1199.12163461 299.90002657 1199.13903187 C295.36108826 1199.20627301 290.82214997 1199.27351507 286.28321182 1199.34076691 C274.46918185 1199.51580552 262.65514914 1199.69065371 250.84110641 1199.86483002 C247.81415584 1199.90947336 244.78720534 1199.95412201 241.76025492 1199.99877563 C239.78474814 1200.02791515 237.80924121 1200.05704476 235.83373413 1200.08616423 C225.5697343 1200.23751183 215.30575584 1200.3900733 205.04183781 1200.54687929 C204.16821013 1200.56021408 203.29458246 1200.57354887 202.39448121 1200.58728775 C197.23047351 1200.66611411 197.23047351 1200.66611411 192.06646867 1200.74512765 C181.82862078 1200.90173184 171.5907246 1201.0472999 161.3525083 1201.1776094 C155.81152406 1201.24838399 150.27065285 1201.32675992 144.72977846 1201.40561363 C142.25638558 1201.43924686 139.78295159 1201.47002453 137.30948187 1201.49742988 C117.93118046 1201.71306832 98.32651513 1202.15076245 79.3125 1206.25 C78.27907471 1206.46615967 77.24564941 1206.68231934 76.1809082 1206.9050293 C40.31457667 1214.64566636 6.70796467 1230.12952443 -22 1253 C-22.56138672 1253.44424316 -23.12277344 1253.88848633 -23.70117188 1254.34619141 C-45.46814421 1271.71665342 -61.25110137 1291.93815104 -75 1316 C-75.3707666 1316.63695801 -75.7415332 1317.27391602 -76.12353516 1317.93017578 C-81.07209571 1326.4665019 -85.00487834 1335.37388012 -88.875 1344.4375 C-89.35203369 1345.55205566 -89.82906738 1346.66661133 -90.32055664 1347.81494141 C-95.73850621 1360.5177129 -95.73850621 1360.5177129 -95 1374 C-92.39234151 1379.68852142 -88.92062936 1384.46112552 -82.94166479 1386.80791098 C-76.35352456 1388.93356742 -70.40680317 1389.42337537 -63.51347923 1389.37358761 C-62.3931161 1389.37753913 -61.27275297 1389.38149065 -60.11843944 1389.38556191 C-56.36711052 1389.39516156 -52.61615639 1389.38342735 -48.86483765 1389.37181091 C-46.14681243 1389.37271204 -43.42880059 1389.37815684 -40.71078074 1389.3834005 C-34.80242383 1389.39242228 -28.89415133 1389.39042352 -22.98579597 1389.38115883 C-14.19906978 1389.36745756 -5.41240992 1389.37104785 3.37432096 1389.37832329 C18.16230353 1389.39016014 32.95025574 1389.38865539 47.73823929 1389.38012505 C67.94910128 1389.36868825 88.15991772 1389.37786753 108.37077563 1389.39268685 C117.79321588 1389.39957968 127.21565674 1389.40552188 136.63809776 1389.41126347 C137.58138262 1389.41184021 138.52466748 1389.41241694 139.49653673 1389.41301116 C161.9462576 1389.4265369 184.39597867 1389.43112171 206.84570312 1389.43383789 C207.82782706 1389.43396104 208.809951 1389.43408419 209.82183628 1389.43421107 C231.7269117 1389.43692425 253.6319868 1389.43784135 275.53706237 1389.43678741 C284.4677421 1389.43636263 293.39842183 1389.43605511 302.32910156 1389.43579102 C303.79829483 1389.43574185 303.79829483 1389.43574185 305.29716876 1389.43569169 C327.68038279 1389.43500535 350.06358833 1389.43763472 372.44679832 1389.4519434 C373.86002433 1389.4528459 373.86002433 1389.4528459 375.30180035 1389.45376664 C384.71104176 1389.4598662 394.12028247 1389.46663399 403.52952269 1389.47435217 C423.70852222 1389.49079415 443.88744546 1389.49688657 464.06644742 1389.48151282 C478.78742973 1389.47049719 493.50835404 1389.47347976 508.22933091 1389.49070387 C516.96045402 1389.50045173 525.69140884 1389.49913033 534.42252058 1389.48156137 C540.27272579 1389.47089051 546.12280699 1389.47497616 551.97300096 1389.4904648 C555.29467439 1389.49884497 558.61575759 1389.49905565 561.93745215 1389.48554879 C592.50267674 1389.36973163 620.46977228 1394.53992132 648 1408 C648.66370605 1408.32226562 649.32741211 1408.64453125 650.01123047 1408.9765625 C683.22339326 1425.31286252 706.72746629 1452.26852029 726.7878418 1482.64868164 C731.50848688 1489.79663859 736.33664634 1496.85827677 741.25 1503.875 C746.32979455 1511.13637239 751.33493285 1518.43544345 756.22729492 1525.82421875 C760.78995058 1532.70782827 765.42164393 1539.54399472 770.0625 1546.375 C770.46584564 1546.96877441 770.86919128 1547.56254883 771.28475952 1548.17431641 C772.93918784 1550.60966379 774.5938237 1553.04486989 776.24882507 1555.47982788 C779.11718493 1559.69998443 781.98327339 1563.92167443 784.84765625 1568.14453125 C785.24326248 1568.72775146 785.63886871 1569.31097168 786.04646301 1569.91186523 C786.84224777 1571.08506042 787.63802924 1572.25825784 788.43380737 1573.43145752 C794.78323125 1582.79170522 801.13851965 1592.14794049 807.5 1601.5 C815.87397081 1613.81063668 824.2343336 1626.13047676 832.59277344 1638.45166016 C834.98084833 1641.97186391 837.36927439 1645.49182929 839.7578125 1649.01171875 C840.14946594 1649.58888641 840.54111938 1650.16605408 840.94464111 1650.76071167 C842.91681135 1653.66701173 844.88903931 1656.5732726 846.86132812 1659.47949219 C850.48051103 1664.81257733 854.09926365 1670.1459524 857.71620178 1675.4805603 C866.27397154 1688.10231342 874.83887676 1700.71879759 883.46122742 1713.29658508 C883.93733302 1713.99110936 884.41343863 1714.68563364 884.90397167 1715.40120411 C885.44650569 1716.19260808 885.44650569 1716.19260808 886 1717 C887.53118567 1688.50502531 888.80454937 1660.00280936 889.98721814 1631.49144197 C890.22953465 1625.66063143 890.47412995 1619.82991645 890.7184906 1613.99919128 C891.17903361 1603.00292518 891.63787485 1592.00658887 892.09593958 1581.01021928 C892.91717303 1561.29628464 893.74084529 1541.58245196 894.56595558 1521.86867923 C894.85424251 1514.9790518 895.14160792 1508.08938677 895.42817509 1501.1996876 C895.60690883 1496.90597784 895.7863122 1492.61229622 895.96586609 1488.31862068 C896.04797965 1486.35161788 896.1298163 1484.38460349 896.21133232 1482.41757584 C896.61741776 1472.62159159 897.04305094 1462.8269086 897.52281189 1453.03422546 C897.56245357 1452.2111483 897.60209525 1451.38807113 897.6429382 1450.54005224 C899.08601536 1421.69196437 907.39706858 1393.27344095 925 1370 C926.00933594 1368.66001953 926.00933594 1368.66001953 927.0390625 1367.29296875 C948.76603043 1339.67996769 978.76971471 1321.5147568 1013 1314 C1014.58167969 1313.64808594 1014.58167969 1313.64808594 1016.1953125 1313.2890625 C1050.82422086 1306.63336702 1087.88469994 1313.85551456 1117.21484375 1333.36328125 C1129.60119738 1341.87631557 1140.43011056 1351.51538655 1150.23046875 1362.9453125 C1153.74679965 1367.02829275 1157.38945428 1371.00043925 1161 1375 C1163.24796977 1377.49687992 1165.49508007 1379.99453151 1167.7421875 1382.4921875 C1169.26708244 1384.18592894 1170.79315402 1385.87861169 1172.3203125 1387.5703125 C1175.69912708 1391.31564256 1179.06895965 1395.06518207 1182.375 1398.875 C1185.82783819 1402.841749 1189.38877381 1406.70682669 1192.95043945 1410.57543945 C1196.08517052 1413.98598806 1199.15726302 1417.44159116 1202.19140625 1420.94140625 C1204.4301125 1423.4895665 1206.71410212 1425.99410593 1209 1428.5 C1211.84524228 1431.61907011 1214.6719958 1434.74755391 1217.4375 1437.9375 C1220.3988351 1441.3468858 1223.44152486 1444.6779431 1226.5 1448 C1230.14414329 1451.95862186 1233.73913717 1455.9517676 1237.265625 1460.015625 C1240.79500714 1464.05374691 1244.40634226 1468.01914681 1248 1472 C1250.24796977 1474.49687992 1252.49508007 1476.99453151 1254.7421875 1479.4921875 C1256.26708244 1481.18592894 1257.79315402 1482.87861169 1259.3203125 1484.5703125 C1262.69912708 1488.31564256 1266.06895965 1492.06518207 1269.375 1495.875 C1272.82783819 1499.841749 1276.38877381 1503.70682669 1279.95043945 1507.57543945 C1283.08517052 1510.98598806 1286.15726302 1514.44159116 1289.19140625 1517.94140625 C1291.4301125 1520.4895665 1293.71410212 1522.99410593 1296 1525.5 C1298.84524228 1528.61907011 1301.6719958 1531.74755391 1304.4375 1534.9375 C1307.3988351 1538.3468858 1310.44152486 1541.6779431 1313.5 1545 C1317.14414329 1548.95862186 1320.73913717 1552.9517676 1324.265625 1557.015625 C1327.79500714 1561.05374691 1331.40634226 1565.01914681 1335 1569 C1337.24796977 1571.49687992 1339.49508007 1573.99453151 1341.7421875 1576.4921875 C1343.26708244 1578.18592894 1344.79315402 1579.87861169 1346.3203125 1581.5703125 C1349.69912708 1585.31564256 1353.06895965 1589.06518207 1356.375 1592.875 C1359.35916686 1596.30332192 1362.42188484 1599.65620801 1365.5 1603 C1369.14411716 1606.95864649 1372.73913655 1610.95176688 1376.265625 1615.015625 C1379.79500714 1619.05374691 1383.40634226 1623.01914681 1387 1627 C1388.50028679 1628.66640851 1390.00028872 1630.33307353 1391.5 1632 C1392.2425 1632.825 1392.985 1633.65 1393.75 1634.5 C1400.5 1642 1400.5 1642 1402.7421875 1644.4921875 C1404.26708244 1646.18592894 1405.79315402 1647.87861169 1407.3203125 1649.5703125 C1410.69912708 1653.31564256 1414.06895965 1657.06518207 1417.375 1660.875 C1420.35916686 1664.30332192 1423.42188484 1667.65620801 1426.5 1671 C1430.14411716 1674.95864649 1433.73913655 1678.95176688 1437.265625 1683.015625 C1440.79500714 1687.05374691 1444.40634226 1691.01914681 1448 1695 C1450.24796977 1697.49687992 1452.49508007 1699.99453151 1454.7421875 1702.4921875 C1456.26708244 1704.18592894 1457.79315402 1705.87861169 1459.3203125 1707.5703125 C1462.69912708 1711.31564256 1466.06895965 1715.06518207 1469.375 1718.875 C1472.35916686 1722.30332192 1475.42188484 1725.65620801 1478.5 1729 C1482.14411716 1732.95864649 1485.73913655 1736.95176688 1489.265625 1741.015625 C1492.79500714 1745.05374691 1496.40634226 1749.01914681 1500 1753 C1502.24796977 1755.49687992 1504.49508007 1757.99453151 1506.7421875 1760.4921875 C1508.26708244 1762.18592894 1509.79315402 1763.87861169 1511.3203125 1765.5703125 C1514.69912708 1769.31564256 1518.06895965 1773.06518207 1521.375 1776.875 C1524.82699166 1780.84077647 1528.3807819 1784.71124445 1531.95263672 1788.56884766 C1534.56209584 1791.39508985 1537.06352978 1794.27469502 1539.5 1797.25 C1549.71448743 1808.91678422 1565.97395745 1817.03365306 1581.42871094 1818.18017578 C1608.45490541 1819.54964695 1627.11084888 1810.4596938 1647.68359375 1793.83789062 C1651.48057987 1790.82527347 1655.39492556 1787.97791454 1659.3125 1785.125 C1666.10265242 1780.16089434 1672.82151433 1775.11332104 1679.5 1770 C1686.88632009 1764.34634038 1694.33194732 1758.78529611 1701.8359375 1753.2890625 C1707.77671433 1748.92722968 1713.6475326 1744.47945452 1719.5 1740 C1726.88559574 1734.34709535 1734.32967004 1728.78566162 1741.83374023 1723.29125977 C1747.79961741 1718.91215096 1753.6877554 1714.43787529 1759.5625 1709.9375 C1763.03792172 1707.28671654 1766.5178893 1704.6419887 1770 1702 C1770.84111328 1701.35981934 1771.68222656 1700.71963867 1772.54882812 1700.06005859 C1774.95968539 1698.23400858 1777.38357021 1696.42691219 1779.8125 1694.625 C1780.522854 1694.08351318 1781.23320801 1693.54202637 1781.96508789 1692.98413086 C1788.51685538 1688.17638704 1794.732603 1686.24417777 1802.8984375 1687.46484375 C1808.89045235 1688.9906914 1812.46480841 1693.25274273 1816 1698 C1817.03724907 1701.11174722 1817.23369943 1703.48184989 1817.3125 1706.75 C1817.34988281 1707.75546875 1817.38726563 1708.7609375 1817.42578125 1709.796875 C1816.21557436 1718.90118372 1808.57486776 1724.79884183 1802.35546875 1730.90234375 C1801.30105042 1731.94860789 1800.24737771 1732.99562394 1799.19441223 1734.04335022 C1796.43016381 1736.79055577 1793.65746842 1739.52906441 1790.88238525 1742.26531982 C1786.45061698 1746.63771909 1782.03146315 1751.02285469 1777.61312294 1755.40881538 C1776.08115103 1756.92700497 1774.54532693 1758.44120573 1773.00883484 1759.95481873 C1772.05161508 1760.9019966 1771.09448283 1761.84926293 1770.13745117 1762.79663086 C1769.31234543 1763.61046738 1768.48723969 1764.42430389 1767.63713074 1765.26280212 C1765.58551912 1767.39226308 1763.64402842 1769.54270076 1761.71482849 1771.77922058 C1757.80212856 1776.28683005 1753.64156784 1780.51342739 1749.42529297 1784.73583984 C1748.59659195 1785.56950577 1747.76789093 1786.40317169 1746.91407776 1787.26210022 C1744.19287653 1789.99781251 1741.4678813 1792.72970173 1738.7421875 1795.4609375 C1737.79547602 1796.41039013 1736.84882245 1797.3599005 1735.90222549 1798.30946732 C1731.45201573 1802.77331458 1726.99983426 1807.23518112 1722.54474056 1811.69415414 C1717.43968219 1816.8036851 1712.34121805 1821.91967594 1707.24844444 1827.04145086 C1703.28577845 1831.02588054 1699.31722318 1835.00438354 1695.34432518 1838.97861063 C1692.98341856 1841.34055479 1690.62569586 1843.70545609 1688.27257919 1846.07517624 C1664.5037347 1869.9997287 1664.5037347 1869.9997287 1650.1875 1877.6875 C1649.52427734 1878.05069336 1648.86105469 1878.41388672 1648.17773438 1878.78808594 C1611.08766633 1898.73142601 1569.24282548 1903.19655246 1528.61865234 1891.7890625 C1509.23784841 1885.94916335 1491.14828928 1876.46766948 1476 1863 C1473.82140664 1861.13527759 1471.62876027 1859.2873063 1469.4375 1857.4375 C1468.88529785 1856.96828125 1468.3330957 1856.4990625 1467.76416016 1856.015625 C1464.55107636 1853.28856191 1461.30325472 1850.6179766 1458 1848 C1454.12245393 1844.92687192 1450.33100139 1841.76726614 1446.5625 1838.5625 C1441.77332742 1834.49031514 1436.94383037 1830.47518393 1432.0703125 1826.50390625 C1422.49138111 1818.69208052 1412.94770048 1810.84027163 1403.53173828 1802.83251953 C1399.33671818 1799.26971596 1395.08085722 1795.78674425 1390.8125 1792.3125 C1387.11985636 1789.27632634 1383.47878212 1786.1815003 1379.8359375 1783.0859375 C1376.4194046 1780.18755177 1372.97495162 1777.328449 1369.5 1774.5 C1364.8954642 1770.75212202 1360.35980809 1766.93016556 1355.8359375 1763.0859375 C1352.4194046 1760.18755177 1348.97495162 1757.328449 1345.5 1754.5 C1340.8954642 1750.75212202 1336.35980809 1746.93016556 1331.8359375 1743.0859375 C1328.4194046 1740.18755177 1324.97495162 1737.328449 1321.5 1734.5 C1316.8954642 1730.75212202 1312.35980809 1726.93016556 1307.8359375 1723.0859375 C1304.4194046 1720.18755177 1300.97495162 1717.328449 1297.5 1714.5 C1293.46016457 1711.21176186 1289.46919573 1707.87265239 1285.5 1704.5 C1280.7308879 1700.44987401 1275.92087568 1696.45647887 1271.0703125 1692.50390625 C1261.49138111 1684.69208052 1251.94770048 1676.84027163 1242.53173828 1668.83251953 C1238.33671818 1665.26971596 1234.08085722 1661.78674425 1229.8125 1658.3125 C1226.11985636 1655.27632634 1222.47878212 1652.1815003 1218.8359375 1649.0859375 C1215.4194046 1646.18755177 1211.97495162 1643.328449 1208.5 1640.5 C1203.8954642 1636.75212202 1199.35980809 1632.93016556 1194.8359375 1629.0859375 C1191.4194046 1626.18755177 1187.97495162 1623.328449 1184.5 1620.5 C1179.8954642 1616.75212202 1175.35980809 1612.93016556 1170.8359375 1609.0859375 C1167.4194046 1606.18755177 1163.97495162 1603.328449 1160.5 1600.5 C1155.8954642 1596.75212202 1151.35980809 1592.93016556 1146.8359375 1589.0859375 C1142.54544391 1585.44613488 1138.19862024 1581.88028439 1133.83203125 1578.33203125 C1131.74970795 1576.61734572 1129.68694173 1574.88898143 1127.63671875 1573.13671875 C1127.06308594 1572.646875 1126.48945313 1572.15703125 1125.8984375 1571.65234375 C1124.79310624 1570.7059985 1123.69007073 1569.7569622 1122.58984375 1568.8046875 C1116.62652672 1563.36704896 1116.62652672 1563.36704896 1109.3125 1560.6875 C1106.84666293 1560.94759366 1106.84666293 1560.94759366 1104 1562 C1103.73126396 1574.95890924 1104.56231599 1587.66680085 1105.74633789 1600.56639099 C1105.93672367 1602.7022756 1106.12644319 1604.83821969 1106.31556034 1606.974217 C1106.83329489 1612.80033253 1107.36033671 1618.62557314 1107.88897753 1624.45070779 C1108.45890831 1630.74941662 1109.02004684 1637.04890951 1109.58224487 1643.34831238 C1110.55636472 1654.2502622 1111.53584017 1665.15171781 1112.51901245 1676.05285454 C1113.55000063 1687.48470601 1114.57744668 1698.91686761 1115.60037231 1710.34944344 C1115.66414427 1711.06217855 1115.72791622 1711.77491367 1115.79362065 1712.50924682 C1116.11752213 1716.12954459 1116.44135148 1719.7498488 1116.76514685 1723.37015606 C1117.42340038 1730.72976846 1118.08214295 1738.0893371 1118.74104309 1745.44889164 C1118.80698577 1746.18543552 1118.87292844 1746.92197941 1118.94086938 1747.6808428 C1120.50813534 1765.18492703 1122.08042242 1782.68855976 1123.65332031 1800.19213867 C1123.79227821 1801.7385231 1123.93123607 1803.28490754 1124.07019389 1804.83129198 C1124.34863171 1807.92984927 1124.62707108 1811.02840641 1124.90551072 1814.12696353 C1124.97452033 1814.89492585 1125.04352993 1815.66288816 1125.11463074 1816.45412207 C1125.25414424 1818.00667332 1125.39365881 1819.55922447 1125.53317442 1821.11177553 C1127.13894207 1838.98122307 1128.74314694 1856.85081076 1130.34667969 1874.72045898 C1130.41540626 1875.48632526 1130.48413283 1876.25219153 1130.55494203 1877.04126587 C1132.12433522 1894.53027304 1133.69274837 1912.01936765 1135.25895691 1929.50866032 C1135.32479418 1930.24383197 1135.39063144 1930.97900363 1135.45846378 1931.73645321 C1136.11573719 1939.07603686 1136.7728975 1946.41563062 1137.42986062 1953.75524205 C1138.84023987 1969.5114969 1140.25338419 1985.26749736 1141.67203781 2001.02300949 C1142.70559505 2012.50184905 1143.73618433 2023.98095056 1144.7638104 2035.46032285 C1145.32048858 2041.67743226 1145.87866178 2047.89439841 1146.44073105 2054.11102295 C1146.95524152 2059.80181663 1147.46567468 2065.4929608 1147.9728812 2071.18440998 C1148.15705195 2073.2427529 1148.34273235 2075.30096142 1148.53007805 2077.35901778 C1148.78470029 2080.15847635 1149.0338154 2082.95837399 1149.28160095 2085.75844479 C1149.35540084 2086.55515749 1149.42920073 2087.35187019 1149.50523698 2088.17272571 C1149.99416846 2093.79160177 1150.07645607 2099.36149924 1150 2105 C1128.30106464 2105.02349723 1106.60213141 2105.04106098 1084.90318584 2105.05181217 C1074.82501993 2105.05693973 1064.74686197 2105.06391383 1054.66870117 2105.07543945 C1045.8711313 2105.08549566 1037.0735672 2105.09187907 1028.27599174 2105.09408849 C1023.62999334 2105.09537729 1018.98401145 2105.09834413 1014.33801842 2105.10573006 C962.56151949 2105.18478139 962.56151949 2105.18478139 936.875 2102.75 C936.20497955 2102.68753082 935.53495911 2102.62506165 934.84463501 2102.56069946 C863.6503727 2095.84691291 795.77426305 2075.00911749 732 2043 C730.61965576 2042.30777344 730.61965576 2042.30777344 729.21142578 2041.6015625 C696.19592266 2024.92004513 664.23394869 2003.91631336 636 1980 C634.93394525 1979.10765282 633.86751885 1978.21574952 632.80078125 1977.32421875 C626.93910962 1972.41059542 621.16391336 1967.42058885 615.51171875 1962.265625 C614.16359349 1961.04958666 612.80962492 1959.83920804 611.42260742 1958.66772461 C604.88454585 1953.10650489 598.87275514 1947.02370679 592.81811523 1940.94848633 C590.94170525 1939.06671726 589.06001031 1937.19035262 587.17773438 1935.31445312 C581.23796321 1929.37827223 575.41983576 1923.4210392 570 1917 C568.97926234 1915.84266529 567.95582404 1914.68770682 566.9296875 1913.53515625 C559.43887273 1905.04589008 552.48714483 1896.24903463 545.67675781 1887.20898438 C542.802122 1883.42189863 539.866508 1879.68257803 536.9375 1875.9375 C532.04057102 1869.66242566 527.22058749 1863.336284 522.4597168 1856.95751953 C518.92085265 1852.21839695 515.34705071 1847.50759777 511.75 1842.8125 C511.21608643 1842.11543945 510.68217285 1841.41837891 510.13208008 1840.70019531 C509.01291047 1839.23921767 507.89368703 1837.77828127 506.77441406 1836.31738281 C498.25379975 1825.18946991 489.76344958 1814.04045343 481.375 1802.8125 C476.01689898 1795.64239939 470.56685314 1788.55186145 465.05371094 1781.50048828 C460.86165067 1776.1308165 456.75091372 1770.70627751 452.67675781 1765.24682617 C447.83105788 1758.75801661 442.93008007 1752.31191382 438.01025391 1745.87915039 C434.77315785 1741.64641264 431.5494338 1737.40599645 428.37109375 1733.12890625 C427.80060303 1732.36698975 427.2301123 1731.60507324 426.64233398 1730.82006836 C425.5918098 1729.41598587 424.54769984 1728.0070667 423.51196289 1726.59204102 C414.04336777 1713.99754957 401.51756634 1707.3796268 386 1705 C373.44125419 1703.74809971 360.25304834 1707.81469359 350.1875 1715.3125 C338.58126887 1725.07514207 333.00048446 1736.73754053 329.76953125 1751.42578125 C329.4851973 1752.65774734 329.20086334 1753.88971344 328.90791321 1755.15901184 C328.27057553 1757.92143709 327.64327689 1760.68590184 327.02301025 1763.45220947 C325.9357684 1768.29822017 324.82258016 1773.13812911 323.70849609 1777.97802734 C321.25710461 1788.64482683 318.83397278 1799.31797581 316.41275406 1809.99165726 C315.17218143 1815.4582589 313.92918357 1820.92430896 312.6862793 1826.39038086 C312.16913819 1828.66480893 311.65200262 1830.93923827 311.13487244 1833.21366882 C310.87522139 1834.35565924 310.61557034 1835.49764965 310.34805107 1836.67424583 C309.54881929 1840.18987533 308.74984153 1843.70556246 307.95094299 1847.2212677 C302.30563992 1872.06365905 296.64572327 1896.90271374 290.98184204 1921.74087524 C289.88911076 1926.53307568 288.79679826 1931.32537121 287.70492554 1936.11776733 C287.18113471 1938.41664694 286.6573412 1940.71552593 286.13354492 1943.0144043 C285.8767203 1944.14167529 285.61989569 1945.26894629 285.35528851 1946.43037701 C284.08593301 1952.00013585 282.81461368 1957.56943423 281.53916931 1963.13780212 C281.03733069 1965.32900711 280.5355047 1967.52021499 280.03369141 1969.71142578 C279.78605954 1970.79251019 279.53842768 1971.87359461 279.28329182 1972.98743916 C277.70107936 1979.90498068 276.137816 1986.82656738 274.58576298 1993.75093555 C273.52180957 1998.49015687 272.44893397 2003.2273345 271.37468529 2007.96423149 C270.8709746 2010.19516757 270.37117069 2012.4269902 269.8757267 2014.65977669 C264.53223134 2038.72599999 257.60120403 2059.18544805 240 2077 C239.41734375 2077.65484375 238.8346875 2078.3096875 238.234375 2078.984375 C222.70652742 2096.08069204 198.22360083 2103.28134476 176 2105 C169.05624056 2105.33141596 162.10406496 2105.27458593 155.15429688 2105.25878906 C153.12028377 2105.26150628 151.08627165 2105.26507127 149.05226135 2105.26940918 C143.57913566 2105.27844865 138.10608622 2105.27502412 132.63295937 2105.26865101 C126.87407874 2105.26354692 121.11520415 2105.26829461 115.35632324 2105.27142334 C105.68984824 2105.27505023 96.02340392 2105.27029753 86.35693359 2105.26074219 C75.22052219 2105.24986013 64.08418404 2105.25338661 52.94777441 2105.264395 C43.34384206 2105.27350439 33.73993162 2105.27473536 24.13599634 2105.26951766 C18.4185685 2105.26641797 12.70117496 2105.26593306 6.98374939 2105.27259064 C1.6057134 2105.27841688 -3.77222918 2105.27427178 -9.1502552 2105.26280212 C-11.11044727 2105.26018353 -13.07064735 2105.26087193 -15.03083611 2105.26532745 C-44.33063986 2105.32572727 -68.66965587 2100.77895595 -92 2082 C-93.5778125 2080.824375 -93.5778125 2080.824375 -95.1875 2079.625 C-106.56735783 2069.00379936 -113.97087775 2055.39355634 -121.10571289 2041.75512695 C-122.97109872 2038.18980251 -124.85191775 2034.63261863 -126.73046875 2031.07421875 C-127.10146698 2030.37046112 -127.47246521 2029.66670349 -127.85470581 2028.94161987 C-130.8502422 2023.26508967 -133.907645 2017.62438678 -137 2012 C-141.87115408 2003.12497219 -146.63379286 1994.19485173 -151.375 1985.25 C-157.15763803 1974.34065541 -162.97146986 1963.44937134 -168.83374023 1952.58251953 C-173.04804878 1944.77030752 -177.24733295 1936.95018712 -181.4375 1929.125 C-182.05955322 1927.96339355 -182.68160645 1926.80178711 -183.32250977 1925.60498047 C-185.53132547 1921.47992919 -187.73959917 1917.35458783 -189.94787598 1913.22924805 C-196.95167388 1900.14550759 -203.96002456 1887.06432186 -211 1874 C-218.67516491 1859.75693546 -226.31226219 1845.49353827 -233.94787598 1831.22924805 C-240.95167388 1818.14550759 -247.96002456 1805.06432186 -255 1792 C-261.72402122 1779.52200514 -268.41919402 1767.02864926 -275.10888672 1754.53222656 C-278.2379096 1748.68742893 -281.36910423 1742.84379451 -284.5 1737 C-291.40141283 1724.11856243 -291.40141283 1724.11856243 -294.83816528 1717.69866943 C-301.77668947 1704.73748568 -308.72797238 1691.78334672 -315.70214844 1678.84130859 C-320.24960552 1670.39991344 -324.78401176 1661.95158109 -329.3125 1653.5 C-329.80907104 1652.57356689 -329.80907104 1652.57356689 -330.31567383 1651.62841797 C-331.24852909 1649.88786649 -332.18091635 1648.1470642 -333.11328125 1646.40625 C-333.64735596 1645.40916016 -334.18143066 1644.41207031 -334.73168945 1643.38476562 C-335.50438884 1641.93188254 -336.26407424 1640.47185151 -337 1639 C-352.66498965 1638.90621176 -368.32990245 1638.83585298 -383.99510384 1638.79275131 C-391.27010659 1638.77219907 -398.54493405 1638.74422057 -405.81982422 1638.69824219 C-412.16679763 1638.65814779 -418.51364398 1638.63251398 -424.86074054 1638.62364602 C-428.21602345 1638.61846897 -431.57065747 1638.60430143 -434.92587662 1638.57707977 C-456.16182208 1638.41173387 -473.86143064 1639.34811168 -490.25 1654.5625 C-502.07845488 1667.09570984 -506.58231398 1681.20010246 -506.3125 1698.25 C-506.29396973 1699.50216309 -506.27543945 1700.75432617 -506.25634766 1702.04443359 C-506.20738363 1704.69079118 -506.14950463 1707.33564542 -506.08154297 1709.98144531 C-505.98702738 1713.93385002 -506.01586859 1717.88246265 -506.03515625 1721.8359375 C-505.8277733 1740.33241154 -501.36756934 1753.21147362 -491.83105469 1768.95703125 C-489.15083803 1773.41119397 -486.71043657 1777.98467265 -484.25 1782.5625 C-483.27689149 1784.33510221 -482.30289602 1786.10721773 -481.328125 1787.87890625 C-477.13840788 1795.54318121 -473.07621384 1803.27499198 -469 1811 C-464.05726673 1820.36541323 -459.10118338 1829.71955554 -454 1839 C-448.54060475 1848.93490793 -443.24260643 1858.95255069 -437.94924927 1868.97650146 C-432.4344636 1879.41870088 -426.87640432 1889.83515608 -421.26269531 1900.22460938 C-416.59186823 1908.87787452 -411.97966145 1917.56143179 -407.375 1926.25 C-402.65591629 1935.15400042 -397.91355592 1944.04193667 -393.0625 1952.875 C-387.58446105 1962.85244708 -382.26454245 1972.91111361 -376.94952393 1982.97595215 C-371.43464885 1993.41833612 -365.87650178 2003.83497572 -360.26269531 2014.22460938 C-355.22378728 2023.55978845 -350.25228124 2032.93005228 -345.2868042 2042.30441284 C-340.13059023 2052.03619393 -334.91730643 2061.73338356 -329.57763672 2071.36621094 C-325.69354382 2078.41216541 -323.07203353 2083.807796 -324 2092 C-325.7158638 2096.69604828 -328.1335675 2099.83655523 -332 2103 C-338.37724332 2105.46999843 -344.66433852 2105.33238597 -351.4375 2105.3125 C-352.53126953 2105.32861328 -353.62503906 2105.34472656 -354.75195312 2105.36132812 C-361.70697655 2105.36551538 -368.12422365 2105.31341796 -373.62036133 2100.61474609 C-378.0202782 2095.88654017 -380.76397169 2090.1706909 -383.625 2084.4375 C-384.68569459 2082.35845292 -385.74823857 2080.28034847 -386.8125 2078.203125 C-387.34617187 2077.15833984 -387.87984375 2076.11355469 -388.4296875 2075.03710938 C-390.75229862 2070.54499458 -393.18316825 2066.11560729 -395.625 2061.6875 C-400.78300509 2052.29980983 -405.81033827 2042.84626859 -410.8125 2033.375 C-418.21681055 2019.35758912 -425.67419825 2005.37029528 -433.17333984 1991.40332031 C-436.28590371 1985.60418367 -439.39261113 1979.80191071 -442.5 1974 C-443.74997291 1971.66665216 -444.99997289 1969.33331881 -446.25 1967 C-448.75 1962.33333333 -451.25 1957.66666667 -453.75 1953 C-454.36858887 1951.84532227 -454.98717773 1950.69064453 -455.62451172 1949.50097656 C-456.87621157 1947.16442672 -458.12783902 1944.82783809 -459.37939453 1942.49121094 C-462.47779835 1936.70677209 -465.57740143 1930.92298277 -468.6796875 1925.140625 C-476.21814732 1911.08564973 -483.72357378 1897.01378034 -491.19091797 1882.92089844 C-495.07899628 1875.587277 -499.0031716 1868.27511525 -503 1861 C-503.79470703 1861.03029297 -504.58941406 1861.06058594 -505.40820312 1861.09179688 C-554.54751444 1862.94127877 -600.12778437 1859.67102611 -638.5 1825.1875 C-639.29019531 1824.45015625 -640.08039063 1823.7128125 -640.89453125 1822.953125 C-642.61257461 1821.35939276 -644.34865335 1819.88541074 -646.1875 1818.4375 C-673.29345376 1794.9456734 -687.88231358 1756.64474073 -690.53515625 1721.68359375 C-693.81040363 1673.63820986 -686.45665896 1627.73627511 -664.66015625 1584.53027344 C-664.07234375 1583.36141602 -663.48453125 1582.19255859 -662.87890625 1580.98828125 C-662.3485376 1579.95227783 -661.81816895 1578.91627441 -661.27172852 1577.84887695 C-659.00815993 1572.78231083 -659.00815993 1572.78231083 -659.8894043 1567.48657227 C-660.36289307 1566.60541748 -660.83638184 1565.7242627 -661.32421875 1564.81640625 C-661.85168701 1563.81875244 -662.37915527 1562.82109863 -662.92260742 1561.79321289 C-663.50502197 1560.72707764 -664.08743652 1559.66094238 -664.6875 1558.5625 C-665.28473877 1557.44286865 -665.88197754 1556.3232373 -666.49731445 1555.16967773 C-668.31579414 1551.77099859 -670.15422522 1548.38392044 -672 1545 C-672.49757813 1544.08476562 -672.99515625 1543.16953125 -673.5078125 1542.2265625 C-675.37656826 1538.7918103 -677.24966461 1535.35952613 -679.13232422 1531.93237305 C-683.77946795 1523.45900615 -688.29959232 1514.92031369 -692.8125 1506.375 C-700.2167335 1492.35754886 -707.67419865 1478.37029455 -715.17333984 1464.40332031 C-718.28590371 1458.60418367 -721.39261113 1452.80191071 -724.5 1447 C-725.74997291 1444.66665216 -726.99997289 1442.33331881 -728.25 1440 C-735.75 1426 -743.25 1412 -750.75 1398 C-751.36858887 1396.84532227 -751.98717773 1395.69064453 -752.62451172 1394.50097656 C-753.87621157 1392.16442672 -755.12783902 1389.82783809 -756.37939453 1387.49121094 C-759.47779835 1381.70677209 -762.57740143 1375.92298277 -765.6796875 1370.140625 C-770.90306771 1360.40183828 -776.12358871 1350.66186069 -781.30078125 1340.8984375 C-781.66211655 1340.21701691 -782.02345184 1339.53559631 -782.39573669 1338.83352661 C-783.12721286 1337.45394707 -783.85867342 1336.07435925 -784.59011841 1334.69476318 C-784.95225433 1334.01174133 -785.31439026 1333.32871948 -785.6875 1332.625 C-786.04987762 1331.94149475 -786.41225525 1331.2579895 -786.78561401 1330.55377197 C-791.11937019 1322.38275126 -795.48561666 1314.23248222 -799.9375 1306.125 C-805.41546751 1296.14751235 -810.73545671 1286.08888799 -816.05047607 1276.02404785 C-821.56029999 1265.59122822 -827.11311933 1255.183998 -832.72192383 1244.80395508 C-838.27713361 1234.51244382 -843.75758685 1224.1815788 -849.22875977 1213.84521484 C-852.75281649 1207.19264564 -856.29965258 1200.55683378 -860 1194 C-880.54044814 1204.12041529 -900.94166303 1214.57560611 -920.99462891 1225.63183594 C-927.77582602 1229.36143122 -934.62401601 1232.94856372 -941.5 1236.5 C-949.42781034 1240.59534569 -957.30490532 1244.76497049 -965.125 1249.0625 C-972.96216968 1253.36475266 -980.83399894 1257.59437735 -988.75 1261.75 C-989.74531738 1262.27601807 -990.74063477 1262.80203613 -991.76611328 1263.34399414 C-992.68376465 1263.82344482 -993.60141602 1264.30289551 -994.546875 1264.796875 C-995.35995117 1265.22323242 -996.17302734 1265.64958984 -997.01074219 1266.08886719 C-999 1267 -999 1267 -1001 1267 C-1001.22228061 1243.25115293 -1000.58752538 1219.52124015 -1000.0232861 1195.78097129 C-999.91272746 1191.11347561 -999.80412205 1186.44593526 -999.69550556 1181.77839404 C-999.43928598 1170.76862032 -999.18002883 1159.75892116 -998.91870117 1148.74926758 C-998.65005074 1137.42922801 -998.38616175 1126.10908457 -998.12464482 1114.78887814 C-997.89872659 1105.0157721 -997.67009428 1095.24273218 -997.43925327 1085.46974117 C-997.30192834 1079.65536903 -997.16555258 1073.84097892 -997.03170967 1068.0265255 C-996.90597802 1062.57036603 -996.77682898 1057.11429764 -996.6451149 1051.65827942 C-996.59756386 1049.66578784 -996.55117566 1047.67326809 -996.50608253 1045.68071938 C-996.27318105 1035.42161629 -995.9581563 1025.22191495 -995 1015 C-994.01 1015 -993.02 1015 -992 1015 C-979.79 1069.78 -967.58 1124.56 -955 1181 C-942.72842835 1174.89621487 -942.72842835 1174.89621487 -930.5625 1168.59765625 C-929.86842041 1168.23079208 -929.17434082 1167.86392792 -928.45922852 1167.48594666 C-927.02084282 1166.7250153 -925.58292972 1165.96318987 -924.14550781 1165.20043945 C-922.0021788 1164.06365559 -919.85666449 1162.93107791 -917.7109375 1161.79882812 C-908.05064613 1156.68846466 -898.50037069 1151.40149777 -889 1146 C-889.77359531 1140.97034542 -891.56857661 1136.34012599 -893.296875 1131.578125 C-893.80778183 1130.15814964 -893.80778183 1130.15814964 -894.32901001 1128.70948792 C-895.46552301 1125.55493356 -896.60757821 1122.40241889 -897.75 1119.25 C-898.5594904 1117.0087376 -899.36889623 1114.76744466 -900.17822266 1112.52612305 C-906.1789148 1095.93098609 -912.26562316 1079.36787508 -918.375 1062.8125 C-919.24663123 1060.44948104 -920.11821315 1058.08644388 -920.98974609 1055.72338867 C-921.42378754 1054.54657028 -921.85782898 1053.36975189 -922.30502319 1052.15727234 C-924.07816906 1047.34934673 -925.85098027 1042.54129782 -927.62353516 1037.7331543 C-928.56042159 1035.19219466 -929.4975592 1032.65132911 -930.43505859 1030.1105957 C-933.07454066 1022.95621956 -935.70887555 1015.80000414 -938.33077431 1008.63916302 C-939.45976915 1005.55610363 -940.59220139 1002.47438282 -941.72967529 999.3944397 C-942.9805115 996.00639296 -944.22189705 992.61503118 -945.4609375 989.22265625 C-946.02482178 987.70517792 -946.02482178 987.70517792 -946.60009766 986.15704346 C-946.93364258 985.23776062 -947.2671875 984.31847778 -947.61083984 983.37133789 C-947.90501801 982.5706337 -948.19919617 981.7699295 -948.50228882 980.94496155 C-949 979 -949 979 -948 977 C-947.01 977 -946.02 977 -945 977 C-943.41980369 978.90306549 -942.05816788 980.76440748 -940.6875 982.8125 C-939.79337071 984.10664774 -938.89743802 985.39955078 -938 986.69140625 C-937.51789062 987.3889502 -937.03578125 988.08649414 -936.5390625 988.80517578 C-933.82700138 992.67278833 -931.00195074 996.45660987 -928.1875 1000.25 C-923.58598856 1006.47242049 -919.0207056 1012.71863486 -914.5 1019 C-908.31923582 1027.58376866 -902.0521406 1036.10201618 -895.76611328 1044.60888672 C-892.25687377 1049.35999147 -888.75538724 1054.11681291 -885.25244141 1058.87255859 C-882.32579251 1062.84531489 -879.39729226 1066.81667846 -876.46484375 1070.78515625 C-870.74300891 1078.5329304 -865.05381487 1086.30033655 -859.4375 1094.125 C-853.14124113 1102.89146394 -846.60272603 1111.46292379 -840 1120 C-819.95511393 1109.41563524 -799.9363838 1098.78767582 -780 1088 C-780 1085.21068868 -781.13925404 1084.54848639 -783.04296875 1082.54296875 C-783.6985376 1081.84872803 -784.35410645 1081.1544873 -785.02954102 1080.43920898 C-785.74166748 1079.69614502 -786.45379395 1078.95308105 -787.1875 1078.1875 C-787.9105835 1077.42574463 -788.63366699 1076.66398926 -789.37866211 1075.87915039 C-794.3580279 1070.65478121 -799.40729615 1065.50408568 -804.57299805 1060.46362305 C-807.30197603 1057.78294556 -809.87347495 1055.02761283 -812.37109375 1052.12890625 C-816.04993167 1047.87655935 -819.9875712 1043.93556235 -824 1040 C-828.61825953 1035.47021287 -833.0319728 1030.87040516 -837.25390625 1025.96875 C-840.18612958 1022.66261899 -843.34410669 1019.59082335 -846.5 1016.5 C-850.29412972 1012.78409976 -854.00136566 1009.05687536 -857.46875 1005.03125 C-861.11066491 1000.8076119 -865.02034299 996.90341837 -869 993 C-873.63774337 988.45110229 -878.07695501 983.83286933 -882.31689453 978.91015625 C-884.89913808 975.97956827 -887.65405675 973.23804205 -890.4375 970.5 C-890.97826172 969.96375 -891.51902344 969.4275 -892.07617188 968.875 C-893.38176617 967.58095964 -894.69052996 966.29011826 -896 965 C-895.67 964.01 -895.34 963.02 -895 962 C-890.36633641 963.63435421 -886.40404198 966.05132534 -882.25 968.625 C-881.477771 969.1001001 -880.70554199 969.5752002 -879.90991211 970.06469727 C-870.9126578 975.62771009 -862.02101124 981.35739437 -853.12109375 987.07421875 C-847.80336536 990.48903858 -842.47078231 993.87929634 -837.125 997.25 C-836.3623584 997.73090088 -835.5997168 998.21180176 -834.81396484 998.70727539 C-833.29783467 999.66282914 -831.7815602 1000.61815397 -830.26513672 1001.57324219 C-818.55758959 1008.94755835 -806.86907151 1016.3511265 -795.19873047 1023.78417969 C-786.1477072 1029.54695587 -777.07581423 1035.27637549 -768 1041 C-757.05129406 1047.90475588 -746.11643589 1054.83049386 -735.19873047 1061.78417969 C-729.24373265 1065.57572001 -723.28208364 1069.35646762 -717.3125 1073.125 C-716.54905273 1073.60718994 -715.78560547 1074.08937988 -714.99902344 1074.58618164 C-710.9495347 1077.14260349 -706.89651062 1079.69326456 -702.83984375 1082.23828125 C-701.98801514 1082.77372559 -701.13618652 1083.30916992 -700.25854492 1083.86083984 C-698.64134146 1084.8772778 -697.02309178 1085.89205399 -695.40356445 1086.90478516 C-690.81713658 1089.78980433 -686.37904766 1092.80839251 -682 1096 C-684.39349188 1098.67200012 -686.90748654 1100.18754876 -690.06640625 1101.86328125 C-691.09572266 1102.41306641 -692.12503906 1102.96285156 -693.18554688 1103.52929688 C-694.29994141 1104.11775391 -695.41433594 1104.70621094 -696.5625 1105.3125 C-698.33272549 1106.25616106 -700.10294682 1107.19983003 -701.87289429 1108.14401245 C-703.70753743 1109.12187919 -705.54337988 1110.09746511 -707.37939453 1111.07275391 C-712.93219815 1114.02505773 -718.46506047 1117.01438477 -724 1120 C-726.16657243 1121.16684166 -728.33323943 1122.33350775 -730.5 1123.5 C-731.5725 1124.0775 -732.645 1124.655 -733.75 1125.25 C-743.49999998 1130.49999999 -743.49999998 1130.49999999 -746.75097656 1132.25048828 C-748.91442985 1133.41544967 -751.07784141 1134.58048855 -753.24121094 1135.74560547 C-758.70670031 1138.68900437 -764.17294152 1141.63099117 -769.640625 1144.5703125 C-771.84375799 1145.75519347 -774.04688306 1146.94008918 -776.25 1148.125 C-777.31541016 1148.69750488 -778.38082031 1149.27000977 -779.47851562 1149.85986328 C-784.81652527 1152.73210425 -790.14359945 1155.62227328 -795.453125 1158.546875 C-796.47245117 1159.10745605 -797.49177734 1159.66803711 -798.54199219 1160.24560547 C-800.47178192 1161.30861444 -802.3996159 1162.37518395 -804.32519531 1163.44580078 C-805.60281738 1164.14938721 -805.60281738 1164.14938721 -806.90625 1164.8671875 C-807.65197266 1165.28081543 -808.39769531 1165.69444336 -809.16601562 1166.12060547 C-811 1167 -811 1167 -813 1167 C-807.78212452 1177.54536289 -802.41710568 1187.99665905 -796.875 1198.375 C-796.12879577 1199.77598283 -795.38270424 1201.17702569 -794.63671875 1202.578125 C-789.55889566 1212.10856883 -784.44522792 1221.6195417 -779.31445312 1231.12158203 C-774.62763453 1239.80983212 -769.99783402 1248.52761863 -765.375 1257.25 C-760.65586092 1266.15397201 -755.9135566 1275.04193543 -751.0625 1283.875 C-745.58446105 1293.85244708 -740.26454245 1303.91111361 -734.94952393 1313.97595215 C-729.43464885 1324.41833612 -723.87650178 1334.83497572 -718.26269531 1345.22460938 C-713.59186823 1353.87787452 -708.97966145 1362.56143179 -704.375 1371.25 C-699.65591629 1380.15400042 -694.91355592 1389.04193667 -690.0625 1397.875 C-684.98829061 1407.11693057 -680.0484953 1416.42725388 -675.125 1425.75 C-668.61335355 1438.07965658 -662.05001782 1450.37878373 -655.42578125 1462.6484375 C-651.14252628 1470.58240446 -646.8886464 1478.5320914 -642.63769531 1486.48339844 C-639.42374903 1492.49120039 -636.19540657 1498.49039198 -632.94140625 1504.4765625 C-632.28376498 1505.6887537 -631.62621144 1506.9009925 -630.96875 1508.11328125 C-629.72092237 1510.41204567 -628.46974778 1512.7089972 -627.21484375 1515.00390625 C-626.66054687 1516.02613281 -626.10625 1517.04835938 -625.53515625 1518.1015625 C-624.79857788 1519.45241943 -624.79857788 1519.45241943 -624.04711914 1520.83056641 C-623 1523 -623 1523 -623 1525 C-617.470408 1520.57204818 -612.0805155 1516.12148984 -606.9375 1511.25 C-560.33468421 1468.6133813 -498.3622374 1454.10009558 -437 1453 C-448.90374364 1430.36914137 -448.90374364 1430.36914137 -461.0625 1407.875 C-465.91373944 1399.04203475 -470.65575172 1390.15391207 -475.375 1381.25 C-481.15757024 1370.34061986 -486.97147022 1359.44937068 -492.83374023 1348.58251953 C-497.04804878 1340.77030752 -501.24733295 1332.95018712 -505.4375 1325.125 C-506.05955322 1323.96339355 -506.68160645 1322.80178711 -507.32250977 1321.60498047 C-509.53132547 1317.47992919 -511.73959917 1313.35458783 -513.94787598 1309.22924805 C-520.95167388 1296.14550759 -527.96002456 1283.06432186 -535 1270 C-541.72402122 1257.52200514 -548.41919402 1245.02864926 -555.10888672 1232.53222656 C-558.86094968 1225.5236333 -562.61580743 1218.51653641 -566.37036133 1211.50927734 C-569.20281717 1206.22266678 -572.03477851 1200.93579508 -574.86381531 1195.64735413 C-576.13462457 1193.27183181 -577.40575863 1190.89648344 -578.67703247 1188.52120972 C-579.30851155 1187.34133609 -579.93992036 1186.16142485 -580.57125854 1184.98147583 C-584.34241751 1177.93472334 -588.13565471 1170.9007453 -591.9597168 1163.88256836 C-594.65508569 1158.92990499 -597.33208942 1153.96750217 -600 1149 C-600.54978516 1147.97712891 -601.09957031 1146.95425781 -601.66601562 1145.90039062 C-623.05703527 1105.9063389 -640.81291463 1063.91563975 -655.33843994 1020.95605469 C-655.79900641 1019.59428385 -656.26098646 1018.23299063 -656.72406006 1016.87207031 C-670.32284887 976.89832111 -681.40655401 936.33991308 -690 895 C-690.17253296 894.17363037 -690.34506592 893.34726074 -690.52282715 892.49584961 C-701.38039488 840.32377971 -708.12436271 787.21307954 -711 734 C-711.04053025 733.27624711 -711.0810605 732.55249422 -711.12281895 731.80680943 C-712.07324203 714.40823391 -712.16427723 697.02390816 -712.16725707 679.6057229 C-712.16797821 677.22659615 -712.17013194 674.84747483 -712.17275429 672.46834946 C-712.1819409 664.11414993 -712.18609728 655.75996613 -712.18530273 647.40576172 C-712.18470233 639.70373314 -712.19526434 632.00177467 -712.2110464 624.2997638 C-712.22424803 617.61106331 -712.22948148 610.9223854 -712.22884732 604.23367202 C-712.2285962 600.27217166 -712.23122835 596.31073397 -712.24202538 592.34924698 C-712.30227376 568.60132316 -711.45843244 545.12626989 -707.75 521.625 C-707.64362213 520.9406488 -707.53724426 520.25629761 -707.42764282 519.5512085 C-695.68405646 444.36683161 -663.83147647 374.30400352 -615 316 C-614.48018555 315.37577148 -613.96037109 314.75154297 -613.42480469 314.10839844 C-607.61659123 307.14946683 -601.6699748 300.50441811 -595.171875 294.171875 C-593.28629926 292.28629926 -591.56773705 290.36926652 -589.875 288.3125 C-587.19709044 285.09146512 -584.18039111 282.44915283 -580.9921875 279.7421875 C-579.12494265 278.10926357 -577.40737604 276.41070861 -575.6875 274.625 C-572.01423836 270.89356453 -568.00817627 267.64825343 -563.9296875 264.37109375 C-561.0553283 262.04477904 -558.24851404 259.65221006 -555.4375 257.25 C-547.61530461 250.72474893 -539.33757225 244.84433724 -531 239 C-530.37786621 238.56187988 -529.75573242 238.12375977 -529.11474609 237.67236328 C-457.74524422 187.73550116 -373.8768773 166.57012539 -287.82519531 164.50683594 C-286.19048857 164.46566115 -284.55578765 164.42425471 -282.92109203 164.38264084 C-278.48977743 164.2704826 -274.0583892 164.16153285 -269.62698054 164.05316353 C-264.82370566 163.93511163 -260.02050815 163.8139847 -255.21730042 163.6932373 C-246.90944433 163.48478547 -238.60154359 163.27819914 -230.29360962 163.07287598 C-218.25265202 162.77526255 -206.21177699 162.47440931 -194.17092049 162.17273664 C-174.59169637 161.68225369 -155.01242071 161.19386226 -135.43310547 160.70703125 C-134.26365831 160.67795291 -133.09421116 160.64887458 -131.88932621 160.61891508 C-127.15212929 160.5011267 -122.41493232 160.38334004 -117.67773527 160.26555657 C-104.6551018 159.94174107 -91.63248019 159.61744948 -78.60986328 159.29296875 C-77.44428367 159.26392692 -76.27870406 159.23488509 -75.07780385 159.20496321 C-55.57641987 158.71901415 -36.07506871 158.23175738 -16.57373619 157.74374771 C-4.57823779 157.44364274 7.41729054 157.14478858 19.41286176 156.84760857 C27.64714098 156.64354949 35.88139126 156.43834938 44.11562067 156.23229027 C48.8501003 156.1138562 53.58459123 155.99593942 58.31912041 155.87950134 C78.55208843 155.38157125 98.77717646 154.82445241 119 154 C112.5182616 145.54476071 105.98517203 137.13398538 99.39111328 128.76611328 C97.09125763 125.84628952 94.79584055 122.92298107 92.5 120 C91.5833549 118.83331639 90.66668823 117.66664973 89.75 116.5 C62.25 81.5 62.25 81.5 60.87524414 79.75024414 C59.95784991 78.5826959 59.04036933 77.41521551 58.12280273 76.24780273 C55.84155755 73.3451721 53.56178786 70.44140726 51.28515625 67.53515625 C47.08999658 62.18304902 42.8817142 56.84357675 38.61914062 51.54492188 C33.28762842 44.91712043 28.08492667 38.205409 22.94384766 31.42895508 C18.55158372 25.66419103 14.01730666 20.02607463 9.40063477 14.43969727 C0 3.01722651 0 3.01722651 0 0 Z M394 146 C397.8673433 150.01523406 401.97510574 153.564704 406.3125 157.0625 C407.01109131 157.62831787 407.70968262 158.19413574 408.42944336 158.77709961 C413.87940865 163.16258518 419.44289385 167.37808405 425.06103516 171.54467773 C430.32860738 175.46213623 435.46307578 179.52550626 440.57324219 183.64526367 C445.48116294 187.59857964 450.45353257 191.4542507 455.4609375 195.28125 C458.1876795 197.36873835 460.89680799 199.47785349 463.6015625 201.59375 C464.40166748 202.21910645 465.20177246 202.84446289 466.02612305 203.48876953 C467.59660862 204.71723683 469.16584722 205.94730047 470.73364258 207.17919922 C474.72494872 210.29836222 478.73956434 213.25873712 483 216 C490.30675879 207.21573667 497.52771507 198.39962707 504.4453125 189.3046875 C507.36585114 185.49478579 510.40071512 181.77994356 513.4375 178.0625 C517.76722154 172.75878361 522.07025913 167.43656266 526.3125 162.0625 C526.78679443 161.4651001 527.26108887 160.8677002 527.74975586 160.25219727 C530.00328923 157.88509594 530.00328923 157.88509594 531 155 C515.05734919 153.82075974 499.11430555 152.64700084 483.17078114 151.47963715 C475.76673874 150.9373967 468.36283246 150.39341205 460.95922852 149.84521484 C454.50082341 149.36700911 448.04217981 148.89218432 441.58323687 148.4212966 C438.16823488 148.17221123 434.75336939 147.92151697 431.33878517 147.66676331 C427.51238041 147.38214221 423.68558203 147.10349832 419.85864258 146.82617188 C418.74588959 146.74201523 417.6331366 146.65785858 416.48666382 146.57115173 C408.98004308 146.03549118 401.52456569 145.90862028 394 146 Z M823 575 C826.91643705 579.07460085 831.09790361 582.64838361 835.5 586.1875 C836.20850098 586.75992432 836.91700195 587.33234863 837.64697266 587.92211914 C843.4333624 592.58074139 849.30296314 597.11983855 855.20849609 601.62646484 C858.7159695 604.31562338 862.20034548 607.03458058 865.6875 609.75 C866.4491748 610.34288818 867.21084961 610.93577637 867.99560547 611.54663086 C869.55362961 612.75949826 871.11157174 613.97247102 872.66943359 615.18554688 C874.95230934 616.96287063 877.23577866 618.73942812 879.51953125 620.515625 C880.26041992 621.09207764 881.00130859 621.66853027 881.76464844 622.26245117 C883.24735501 623.41496566 884.73106976 624.56618437 886.21582031 625.71606445 C890.17901858 628.78845609 894.11690085 631.88799531 898.02734375 635.02734375 C899.26000977 636.00864258 899.26000977 636.00864258 900.51757812 637.00976562 C902.10239355 638.27224571 903.68080955 639.54281115 905.25195312 640.82226562 C905.96158203 641.38494141 906.67121094 641.94761719 907.40234375 642.52734375 C908.02616943 643.02999756 908.64999512 643.53265137 909.29272461 644.05053711 C909.85612549 644.36385986 910.41952637 644.67718262 911 645 C914.96529066 643.67823645 915.89819507 641.79064953 918.375 638.4375 C919.26745336 637.24583684 920.16208933 636.05580599 921.05859375 634.8671875 C921.53409668 634.23651367 922.00959961 633.60583984 922.49951172 632.95605469 C925.07389028 629.60006362 927.75728573 626.3341305 930.4375 623.0625 C934.97981805 617.5042157 939.4610103 611.90504224 943.88183594 606.24975586 C949.1977371 599.45450307 954.60015583 592.72860164 960 586 C956.88448786 584.2094979 954.39834366 583.6716638 950.82733154 583.41781616 C949.78162491 583.33933945 948.73591827 583.26086273 947.65852356 583.18000793 C946.51663071 583.10304184 945.37473785 583.02607574 944.19824219 582.94677734 C942.9913121 582.85870316 941.78438202 582.77062897 940.5408783 582.67988586 C937.2332133 582.44028898 933.92518247 582.2083029 930.61674023 581.97985029 C927.14872318 581.73872734 923.68137157 581.4883792 920.21392822 581.23916626 C914.38698989 580.82170929 908.5596287 580.41065563 902.73193359 580.00390625 C895.26861022 579.48296348 887.80607255 578.95153921 880.34373093 578.41673851 C873.91255877 577.95592479 867.48104256 577.49998202 861.04946995 577.04479647 C858.990636 576.89888123 856.93185006 576.75230289 854.87306976 576.60563278 C851.02207337 576.33165247 847.1707318 576.06274256 843.31933594 575.79443359 C842.18554001 575.71341904 841.05174408 575.63240448 839.8835907 575.54893494 C834.23902384 575.15996695 828.65791392 574.91302672 823 575 Z M1251 996 C1254.81732811 1000.0294019 1258.89790447 1003.29485682 1263.375 1006.5625 C1268.8996121 1010.64759602 1274.34039146 1014.81002237 1279.6875 1019.125 C1284.70544464 1023.17097403 1289.75878678 1027.15540069 1294.87792969 1031.07299805 C1299.58122978 1034.67302856 1304.26245242 1038.30086138 1308.9375 1041.9375 C1309.70215576 1042.53224121 1310.46681152 1043.12698242 1311.25463867 1043.73974609 C1316.6322717 1047.92635205 1321.99094965 1052.13652729 1327.34399414 1056.35449219 C1331.51577568 1059.63529196 1335.73391199 1062.84309487 1340 1066 C1343.0118602 1064.67789709 1344.80540131 1063.36610497 1346.84765625 1060.796875 C1347.36457031 1060.15363281 1347.88148438 1059.51039062 1348.4140625 1058.84765625 C1348.95804688 1058.15542969 1349.50203125 1057.46320313 1350.0625 1056.75 C1350.63613281 1056.03199219 1351.20976562 1055.31398438 1351.80078125 1054.57421875 C1353.54243384 1052.38944659 1355.27312674 1050.19646602 1357 1048 C1357.48452637 1047.38447266 1357.96905273 1046.76894531 1358.46826172 1046.13476562 C1360.25778545 1043.85915908 1362.04527093 1041.58199969 1363.82763672 1039.30078125 C1367.39586235 1034.74131003 1371.03139866 1030.23921037 1374.6875 1025.75 C1375.23494873 1025.07694824 1375.78239746 1024.40389648 1376.34643555 1023.71044922 C1378.75825416 1020.74682634 1381.17433109 1017.78694988 1383.6015625 1014.8359375 C1384.33117188 1013.94132812 1385.06078125 1013.04671875 1385.8125 1012.125 C1386.43769531 1011.36445313 1387.06289062 1010.60390625 1387.70703125 1009.8203125 C1389.19302825 1008.10037419 1389.19302825 1008.10037419 1389 1006 C1362.00823961 1003.74342297 1335.00187958 1001.72203462 1307.9855957 999.78295898 C1302.44129428 999.38500883 1296.89720362 998.98419856 1291.35316372 998.58262348 C1287.03566496 998.27017172 1282.71806785 997.95909724 1278.40043831 997.64845848 C1276.35226552 997.50094736 1274.3041223 997.3530251 1272.25601006 997.20467567 C1269.42785169 997.00004471 1266.59956741 996.79725319 1263.77124023 996.5949707 C1262.93672836 996.53422867 1262.10221649 996.47348663 1261.24241638 996.41090393 C1257.81502887 996.16746416 1254.43811186 996 1251 996 Z"/>
  </g>
  <g transform="translate(1564.655,240.000) scale(0.757278) translate(-923.330,-1093.330)" fill="#111111">
    <g transform="matrix(1,0,0,1,-3808,-2909)">
        <g transform="matrix(1,0,0,1,-0.333333,2909)" id="Mesa-de-trabajo2">
            <rect style="fill:none;" height="2700" width="3600" y="0" x="3808.333"/>
            <g transform="matrix(1,0,0,1,473.326034,413.426686)">
                <path style="fill-rule:nonzero;" d="M4787.521,711.297L4631.903,711.297L4631.903,913.696L4609.945,913.696C4490.606,913.696 4436.187,965.251 4416.138,1049.266L4378.904,1049.266C4411.365,1016.805 4416.138,951.885 4416.138,915.606L4416.138,711.297L4260.52,711.297L4261.475,1351.909L4416.138,1351.909L4416.138,1150.465C4416.138,1038.764 4500.153,1043.537 4606.126,1043.537L4632.858,1043.537L4632.858,1350L4787.521,1350L4787.521,711.297Z"/>
                <path style="fill-rule:nonzero;" d="M5216.187,1230.661L5234.327,1350L5379.443,1350L5379.443,849.731L5235.281,849.731L5225.734,896.512C5192.319,865.961 5146.493,839.229 5069.161,839.229C4910.679,839.229 4831.438,969.07 4831.438,1098.911C4831.438,1229.706 4910.679,1359.547 5069.161,1359.547C5134.082,1359.547 5214.278,1317.54 5203.776,1230.661L5216.187,1230.661ZM4993.739,1098.911C4993.739,1031.126 5037.656,975.753 5109.259,975.753C5181.817,975.753 5224.78,1031.126 5224.78,1098.911C5224.78,1166.695 5181.817,1222.069 5109.259,1222.069C5037.656,1222.069 4993.739,1166.695 4993.739,1098.911Z"/>
                <path style="fill-rule:nonzero;" d="M5432.907,1350L5587.57,1350.955L5588.525,682.656L5433.862,681.701L5432.907,1350Z"/>
                <g transform="matrix(1,0,0,1,-472.992701,-3322.426686)">
                    <path d="M6630.972,4352.142C6635.049,4372.426 6637.209,4394.51 6637.209,4418.473C6637.209,4600.823 6512.142,4687.702 6368.935,4687.702C6225.728,4687.702 6100.661,4600.823 6100.661,4418.473C6100.661,4236.123 6225.728,4162.61 6368.935,4162.61C6454.763,4162.61 6534.076,4189.016 6583.854,4249.432L6454.806,4249.233C6521.332,4254.132 6586.924,4301.365 6630.972,4352.142ZM6373.709,4279.085L6364.161,4279.085C6285.875,4279.085 6262.962,4346.87 6262.962,4418.473C6262.962,4487.212 6283.966,4556.906 6362.252,4556.906L6375.618,4556.906C6453.904,4556.906 6474.908,4487.212 6474.908,4418.473C6474.908,4346.87 6451.995,4279.085 6373.709,4279.085Z"/>
                </g>
            </g>
        </g>
    </g>
  </g>
</svg>