<?xml version="1.0" encoding="UTF-8" standalone="no"?>
<!DOCTYPE svg PUBLIC "-//W3C//DTD SVG 1.1//EN" "http://www.w3.org/Graphics/SVG/1.1/DTD/svg11.dtd">
<svg width="100%" height="100%" viewBox="0 0 1453 1046" version="1.1" xmlns="http://www.w3.org/2000/svg" xmlns:xlink="http://www.w3.org/1999/xlink" xml:space="preserve" xmlns:serif="http://www.serif.com/" style="fill-rule:evenodd;clip-rule:evenodd;stroke-linecap:round;stroke-linejoin:round;stroke-miterlimit:1.5;">
    <g transform="matrix(1,0,0,1,-1076.28086,-829.822582)">
        <g transform="matrix(1,0,0,1,0.333333,0)">
            <g transform="matrix(0.04947,0,0,-0.04947,680.044459,2772.469479)">
                <path d="M18020,39266C18020,39262 18290,38916 18619,38497C18949,38078 19217,37734 19216,37732C19214,37731 18237,37705 17044,37675C15851,37645 14817,37616 14745,37610C12876,37451 11345,36090 10976,34259C10897,33865 10886,33674 10893,32766C10898,32049 10903,31916 10941,31515C11025,30601 11229,29701 11540,28864C11679,28492 11854,28098 12013,27802C12060,27715 12445,26997 12870,26205C13295,25413 13645,24759 13647,24753C13651,24743 13625,24740 13534,24740C12917,24740 12329,24513 11880,24101C11830,24055 11788,24019 11786,24021C11776,24033 9869,27603 9872,27605C9874,27606 10171,27766 10532,27961C10893,28155 11188,28315 11187,28316C11186,28317 10708,28620 10125,28989C9542,29358 9063,29655 9061,29649C9059,29643 9087,29608 9122,29571C9158,29535 9391,29291 9640,29030C9889,28769 10126,28521 10166,28480L10239,28405L9929,28240C9758,28149 9615,28074 9610,28072C9606,28070 9365,28393 9074,28790C8783,29186 8542,29510 8538,29510C8534,29510 8530,29506 8530,29500C8530,29495 8665,29121 8830,28668C8995,28215 9131,27839 9133,27831C9134,27823 9012,27751 8795,27634L8455,27451L8448,27478C8445,27493 8362,27865 8264,28305C8167,28745 8084,29109 8079,29114C8074,29119 8068,29121 8065,29119C8061,29114 7999,26618 8003,26613C8005,26612 8322,26779 8708,26984L9410,27358L9454,27276C9535,27127 11397,23646 11418,23604L11439,23563L11375,23439C11247,23191 11168,22943 11123,22650C11099,22495 11100,22124 11124,21962C11215,21353 11648,20868 12235,20715C12393,20674 12483,20667 12745,20673L12985,20679L13614,19502C13960,18855 14251,18315 14259,18303C14268,18291 14291,18272 14311,18261C14344,18242 14365,18240 14495,18240C14665,18240 14696,18249 14738,18313C14758,18344 14765,18366 14765,18404C14765,18452 14718,18543 13862,20142L12959,21828L12945,22093C12930,22376 12933,22435 12971,22534C13018,22660 13127,22783 13243,22840C13376,22905 13355,22904 14026,22907L14637,22911L15765,20808C16385,19651 16906,18685 16923,18660C17046,18476 17229,18344 17455,18273L17545,18245L19905,18245L19994,18273C20332,18379 20568,18621 20655,18953C20668,19004 20824,19679 21000,20454C21177,21229 21329,21884 21339,21910C21443,22184 21766,22314 22040,22193C22160,22140 22164,22135 22863,21216C23227,20737 23568,20293 23621,20230C24486,19196 25722,18501 27050,18301C27414,18246 27404,18247 28494,18243L29512,18239L29506,18297C29502,18329 29394,19541 29265,20990C29034,23578 29030,23625 29048,23650C29061,23667 29079,23676 29103,23678C29137,23681 29164,23660 29617,23283C30649,22423 32602,20798 32737,20688C32901,20554 33023,20478 33168,20420C33365,20341 33529,20310 33750,20310C34072,20310 34389,20412 34631,20595C34755,20688 36134,22074 36160,22132C36218,22261 36128,22400 35986,22400C35961,22400 35928,22394 35913,22388C35898,22381 35532,22110 35100,21787C34287,21177 34233,21141 34095,21106C33854,21045 33595,21110 33428,21272C33398,21301 32480,22322 31388,23541C30296,24759 29374,25782 29339,25814C29168,25968 28939,26084 28698,26137C28580,26162 28280,26162 28160,26137C27871,26075 27634,25951 27429,25753C27203,25534 27070,25283 27015,24968C26998,24873 26986,24642 26931,23280C26909,22744 26888,22254 26884,22193L26878,22080L26008,23363C25529,24068 25124,24663 25106,24685C24835,25029 24463,25257 24015,25352L23905,25375L17203,25385L17154,25415C17124,25434 17094,25464 17075,25494C17030,25568 17032,25644 17084,25770C17177,25998 17306,26236 17424,26395C17503,26502 17691,26686 17820,26785C18201,27075 18654,27241 19131,27265C19194,27269 21486,27305 24225,27345C29237,27420 32100,27471 32285,27489C32474,27507 32641,27583 32772,27709C32859,27793 34001,29143 33992,29151C33988,29154 33697,29189 33346,29228L32706,29299L32546,29407C32457,29466 32263,29597 32115,29697L31845,29879L30200,29999L28555,30118L27582,30440C27046,30617 26607,30760 26606,30758C26604,30757 26870,30415 27197,30000L27791,29245L27693,29242C27639,29241 25680,29208 23340,29170C21000,29132 19022,29096 18945,29090C18503,29056 18111,28965 17700,28803C17426,28694 17196,28574 16940,28404C16582,28166 16297,27909 16010,27565C15945,27488 15884,27418 15874,27409C15830,27371 15785,27356 15715,27356C15656,27356 15636,27361 15590,27385C15494,27437 15493,27440 15283,28065C15016,28856 15006,28902 15006,29280C15006,29540 15022,29666 15081,29878C15229,30402 15570,30862 16022,31142C16295,31311 16647,31432 16975,31469C17069,31480 23541,31618 26385,31670C27670,31693 28029,31703 28080,31714C28231,31747 28374,31821 28482,31921C28529,31965 29713,33361 29707,33366C29706,33368 29417,33401 29065,33440C28713,33479 28420,33512 28414,33514C28408,33517 28212,33648 27980,33805L27557,34092L24271,34330L23293,34653C22755,34831 22314,34976 22312,34974C22310,34973 22577,34631 22905,34213L23502,33455L23444,33448C23411,33444 22015,33414 20340,33380C18665,33347 17198,33315 17080,33310C16166,33270 15365,32974 14662,32419C14533,32317 14269,32061 14151,31925C13701,31404 13390,30770 13250,30090C13234,30012 13216,29942 13209,29934C13190,29911 13133,29916 13116,29943C13083,29994 12961,30465 12896,30795C12756,31498 12713,32074 12723,33089C12728,33616 12733,33700 12775,33902C12881,34413 13158,34887 13544,35217C13931,35548 14381,35738 14890,35784C14998,35794 20456,35927 22115,35960C22968,35977 23698,35995 23738,36001C23879,36021 24031,36087 24142,36176C24203,36224 25416,37647 25405,37658C25402,37661 25111,37696 24759,37736L24118,37808L23972,37906C23891,37961 23697,38091 23540,38197L23255,38389L21620,38505L19985,38622L19015,38942C18482,39119 18039,39265 18033,39267C18026,39270 18020,39269 18020,39266ZM22680,37775C23028,37750 23316,37727 23318,37725C23323,37720 22847,37121 22837,37120C22829,37120 21979,37780 21945,37812C21925,37832 21925,37832 21985,37826C22018,37822 22331,37799 22680,37775ZM26938,33483C27307,33457 27610,33432 27610,33427C27610,33423 27503,33285 27371,33120L27132,32820L26694,33161C26194,33550 26218,33530 26245,33530C26256,33531 26568,33509 26938,33483ZM31219,29270C31595,29243 31904,29219 31906,29218C31909,29215 31464,28652 31435,28622C31425,28611 31343,28671 30965,28964C30714,29160 30514,29320 30521,29320C30529,29320 30843,29298 31219,29270Z" style="fill-rule:nonzero;"/>
            </g>
            <g transform="matrix(0.424406,0,0,0.424406,1363.94314,1023.675408)">
                <path d="M2547.63,1932.74L2547.63,1803.758L2602.443,1803.758C2616.227,1803.758 2626.242,1804.916 2632.489,1807.233C2638.736,1809.55 2643.736,1813.67 2647.49,1819.595C2651.244,1825.519 2653.121,1832.293 2653.121,1839.919C2653.121,1849.597 2650.276,1857.588 2644.586,1863.894C2638.897,1870.199 2630.392,1874.173 2619.072,1875.815C2624.702,1879.1 2629.351,1882.707 2633.017,1886.637C2636.683,1890.567 2641.624,1897.547 2647.842,1907.577L2663.591,1932.74L2632.445,1932.74L2613.617,1904.673C2606.93,1894.643 2602.355,1888.323 2599.891,1885.713C2597.428,1883.103 2594.818,1881.314 2592.061,1880.346C2589.304,1879.379 2584.934,1878.895 2578.952,1878.895L2573.673,1878.895L2573.673,1932.74L2547.63,1932.74ZM2573.673,1858.307L2592.941,1858.307C2605.434,1858.307 2613.235,1857.779 2616.344,1856.723C2619.453,1855.667 2621.887,1853.849 2623.647,1851.268C2625.406,1848.687 2626.286,1845.461 2626.286,1841.59C2626.286,1837.25 2625.128,1833.745 2622.811,1831.076C2620.494,1828.408 2617.224,1826.721 2613.001,1826.017C2610.889,1825.724 2604.554,1825.577 2593.997,1825.577L2573.673,1825.577L2573.673,1858.307Z"/>
            </g>
            <g transform="matrix(0.406699,0,0,0.406699,1357.723215,1040.531899)">
                <circle cx="2734.351" cy="1908.144" r="131.807" style="fill:none;stroke:black;stroke-width:24.59px;"/>
            </g>
        </g>
    </g>
</svg>
